<?xml version="1.0" encoding="utf-8"?>
<!-- Generator: Adobe Illustrator 19.1.1, SVG Export Plug-In . SVG Version: 6.00 Build 0)  -->
<svg version="1.1" id="Слой_1" xmlns="http://www.w3.org/2000/svg" xmlns:xlink="http://www.w3.org/1999/xlink" x="0px" y="0px"
	 viewBox="0 0 56.7 56.7" style="enable-background:new 0 0 56.7 56.7;" xml:space="preserve">
<style type="text/css">
	.st0{fill-rule:evenodd;clip-rule:evenodd;}
</style>
<path class="st0" d="M42.7,31c0,1.4-0.6,2.6-1.5,3.5c-0.7,0.7-1.6,1.2-2.5,1.4V40h1c0.6,0,1,0.4,1,1c0,0.6-0.4,1-1,1h-1v4h3
	c0.6,0,1,0.4,1,1s-0.4,1-1,1h-4h-4c-0.6,0-1-0.4-1-1s0.4-1,1-1h3v-4h-1c-0.6,0-1-0.4-1-1c0-0.6,0.4-1,1-1h1v-4.1
	c-1-0.2-1.9-0.7-2.5-1.4c-0.9-0.9-1.5-2.2-1.5-3.5c0-0.6,0.4-1,1-1h8C42.2,30,42.7,30.5,42.7,31L42.7,31z M32.7,24h-23
	c-0.6,0-1,0.4-1,1v22c0,0.6,0.4,1,1,1c0.6,0,1-0.4,1-1V26h23h13v21c0,0.6,0.4,1,1,1s1-0.4,1-1V25c0-0.6-0.4-1-1-1h-1l0-5.3
	c0-0.7-0.1-1.3-0.4-1.9c-0.2-0.6-0.6-1.1-1.1-1.6l-0.5-0.5V11c0-0.6-0.4-1-1-1c-0.6,0-1,0.4-1,1v3.6l-0.5,0.5
	c-0.5,0.5-0.8,1-1.1,1.6c-0.2,0.6-0.4,1.2-0.4,1.9l0,5.3h-6v-2.7l3.8-5.7c0.1-0.2,0.2-0.4,0.2-0.6c0-0.6-0.4-1-1-1l-8,0
	c-0.2,0-0.4,0.1-0.6,0.2c-0.5,0.3-0.6,0.9-0.3,1.4l3.8,5.8V24L32.7,24z M31.5,16h4.3l-2.1,3.2L31.5,16L31.5,16z M44.7,24h-2l0-5.3
	c0-0.4,0.1-0.8,0.2-1.2c0.1-0.3,0.4-0.7,0.7-1l0.1-0.1l0.1,0.1c0.3,0.3,0.5,0.6,0.7,1c0.1,0.3,0.2,0.7,0.2,1.2L44.7,24L44.7,24z
	 M10.7,16v-3c0-0.6,0.4-1,1-1s1,0.4,1,1v3h2v-3c0-0.6,0.4-1,1-1s1,0.4,1,1v3h2v-3c0-0.6,0.4-1,1-1c0.6,0,1,0.4,1,1v3h1
	c0.6,0,1,0.4,1,1s-0.4,1-1,1h-2h-4h-4h-2c-0.6,0-1-0.4-1-1s0.4-1,1-1H10.7L10.7,16z M9.7,10c-0.6,0-1-0.4-1-1c0-0.6,0.4-1,1-1h12
	c0.6,0,1,0.4,1,1c0,0.6-0.4,1-1,1H9.7L9.7,10z M21.7,42.1c-0.6,0-1-0.4-1-1c0-0.6,0.4-1,1-1h1v-4.1c-1-0.2-1.9-0.7-2.5-1.4
	c-0.9-0.9-1.5-2.2-1.5-3.5c0-0.6,0.4-1,1-1h8c0.6,0,1,0.4,1,1c0,1.4-0.6,2.6-1.5,3.5c-0.7,0.7-1.6,1.2-2.5,1.4V40h1c0.6,0,1,0.4,1,1
	c0,0.6-0.4,1-1,1h-1v4h3c0.6,0,1,0.4,1,1s-0.4,1-1,1h-4h-4c-0.6,0-1-0.4-1-1s0.4-1,1-1h3v-4H21.7L21.7,42.1z M25.8,33.2
	c-0.5,0.5-1.3,0.9-2.1,0.9c-0.8,0-1.6-0.3-2.1-0.9c-0.3-0.3-0.6-0.7-0.7-1.1h5.7C26.4,32.5,26.1,32.9,25.8,33.2L25.8,33.2z
	 M39.8,33.2c0.3-0.3,0.6-0.7,0.7-1.1h-5.7c0.2,0.4,0.4,0.8,0.7,1.1c0.5,0.5,1.3,0.9,2.1,0.9C38.5,34,39.3,33.7,39.8,33.2z"/>
</svg>
