<?xml version="1.0" encoding="utf-8"?>
<!-- Generator: Adobe Illustrator 19.1.1, SVG Export Plug-In . SVG Version: 6.00 Build 0)  -->
<svg version="1.1" id="Слой_1" xmlns="http://www.w3.org/2000/svg" xmlns:xlink="http://www.w3.org/1999/xlink" x="0px" y="0px"
	 viewBox="0 0 56.7 56.7" style="enable-background:new 0 0 56.7 56.7;" xml:space="preserve">
<style type="text/css">
	.st0{fill-rule:evenodd;clip-rule:evenodd;}
</style>
<path class="st0" d="M17,22.1L17,22.1L17,22.1c1.5,0,2.2-0.5,2.6-1.1c0.4-0.6,0.5-1.4,0.5-1.8l0,0c0-0.4,0.2-0.9,0.7-1
	c0.5-0.2,1.1,0.1,1.3,0.6c0.1,0.4,0.4,0.7,0.7,0.9c0.4,0.2,0.8,0.4,1.2,0.4c0.4,0,0.8-0.1,1.2-0.4c0.3-0.2,0.6-0.5,0.7-0.9
	c0.1-0.4,0.5-0.7,1-0.7l9,0c-0.1-0.4-0.4-0.8-0.7-1.1C34.6,16.4,33.9,16,33,16c-0.6,0-1-0.4-1-1c0-0.5-0.1-0.9-0.2-1.3
	c-0.2-0.4-0.4-0.7-0.7-0.9c-0.3-0.2-0.7-0.3-1.1-0.3c-0.3,0-0.7,0.1-1,0.2l0,0c-0.5,0.2-1.1,0-1.3-0.5c-0.3-0.7-0.8-1.3-1.5-1.7
	C25.6,10.3,24.8,10,24,10c-0.5,0-1,0.1-1.4,0.2c-0.8,0.3-1.4,0.8-1.9,1.5c-0.5,0.7-0.7,1.5-0.7,2.3c0,0.5,0.1,0.9,0.2,1.4
	c0.1,0.3,0.1,0.6-0.1,0.9c-0.3,0.4-0.9,0.6-1.4,0.2c-0.2-0.2-0.5-0.3-0.7-0.4l-0.1,0C17.7,16.1,17.3,16,17,16
	c-0.8,0-1.6,0.3-2.1,0.9c-0.5,0.5-0.9,1.3-0.9,2.1s0.3,1.6,0.9,2.1C15.4,21.7,16.2,22.1,17,22.1L17,22.1z M18,42.1V24
	c1.7-0.2,2.7-1,3.3-1.9c0.2-0.2,0.3-0.5,0.4-0.7c0.7,0.5,1.5,0.7,2.3,0.7c0.9,0,1.7-0.3,2.3-0.7c0.5-0.3,0.9-0.8,1.2-1.3
	c2.8,0,5.7,0,8.5,0v5v16v1L18,42.1L18,42.1z M35.9,44.1l-17.7,0c0.2,0.4,0.4,0.8,0.7,1.1l0,0c0.5,0.5,1.3,0.8,2.1,0.8h12
	c0.8,0,1.6-0.3,2.1-0.9C35.5,44.9,35.7,44.5,35.9,44.1L35.9,44.1z M34,39.1v-12c0-0.6-0.4-1-1-1s-1,0.4-1,1v12c0,0.6,0.4,1,1,1
	S34,39.6,34,39.1L34,39.1z M22,39.1v-12c0-0.6-0.4-1-1-1c-0.6,0-1,0.4-1,1v12c0,0.6,0.4,1,1,1C21.6,40.1,22,39.6,22,39.1L22,39.1z
	 M26,39.1v-12c0-0.6-0.4-1-1-1c-0.6,0-1,0.4-1,1v12c0,0.6,0.4,1,1,1C25.6,40.1,26,39.6,26,39.1L26,39.1z M30,39.1v-12
	c0-0.6-0.4-1-1-1c-0.6,0-1,0.4-1,1v12c0,0.6,0.4,1,1,1C29.6,40.1,30,39.6,30,39.1L30,39.1z M38,40.1h3c0.8,0,1.6-0.3,2.1-0.9
	c0.5-0.5,0.9-1.3,0.9-2.1v-8c0-0.8-0.3-1.6-0.9-2.1c-0.5-0.5-1.3-0.9-2.1-0.9h-3V40.1L38,40.1z M38,24.1h3c1.4,0,2.6,0.6,3.5,1.5
	c0.9,0.9,1.5,2.2,1.5,3.5v8c0,1.4-0.6,2.6-1.5,3.5c-0.9,0.9-2.2,1.5-3.5,1.5h-3v1c0,1.4-0.6,2.6-1.5,3.5c-0.9,0.9-2.2,1.5-3.5,1.5
	H21c-1.3,0-2.6-0.5-3.5-1.4l-0.1-0.1c-0.9-0.9-1.5-2.2-1.5-3.5V24c-1-0.2-1.9-0.7-2.5-1.4c-0.9-0.9-1.5-2.2-1.5-3.5
	c0-1.4,0.6-2.6,1.5-3.5c0.9-0.9,2.2-1.5,3.5-1.5c0.3,0,0.7,0,1,0.1l0-0.1c0-1.2,0.4-2.4,1.1-3.4c0.7-1,1.7-1.8,2.8-2.2
	C22.6,8.2,23.3,8,24,8c1.2,0,2.3,0.3,3.2,0.9c0.7,0.4,1.3,1,1.8,1.7c0.3-0.1,0.6-0.1,0.9-0.1c0.8,0,1.5,0.2,2.1,0.6
	c0.6,0.4,1.2,1,1.5,1.8c0.2,0.3,0.3,0.7,0.3,1.1c1,0.2,1.9,0.7,2.6,1.4c0.9,0.9,1.5,2.2,1.5,3.5V24.1z"/>
</svg>
