<?xml version="1.0" encoding="utf-8"?>
<svg version="1.1" xmlns="http://www.w3.org/2000/svg" viewBox="0 0 57 57">
<path d="M12.5,9.6c0.8,0,1.6,0.3,2.1,0.9c0.5,0.5,0.9,1.3,0.9,2.1s-0.3,1.6-0.9,2.1c-0.5,0.5-1.3,0.9-2.1,0.9
	c-0.8,0-1.6-0.3-2.1-0.9c-0.5-0.5-0.9-1.3-0.9-2.1s0.3-1.6,0.9-2.1C11,9.9,11.7,9.6,12.5,9.6L12.5,9.6z M28.6,41.6
	c0.8,0,1.6,0.3,2.1,0.9c0.5,0.5,0.9,1.3,0.9,2.1c0,0.8-0.3,1.6-0.9,2.1c-0.5,0.5-1.3,0.9-2.1,0.9c-0.8,0-1.6-0.3-2.1-0.9
	c-0.5-0.5-0.9-1.3-0.9-2.1c0-0.8,0.3-1.6,0.9-2.1C27,41.9,27.7,41.6,28.6,41.6L28.6,41.6z M29.3,43.9c-0.2-0.2-0.4-0.3-0.7-0.3
	s-0.5,0.1-0.7,0.3c-0.2,0.2-0.3,0.4-0.3,0.7c0,0.3,0.1,0.5,0.3,0.7c0.2,0.2,0.4,0.3,0.7,0.3s0.5-0.1,0.7-0.3
	c0.2-0.2,0.3-0.4,0.3-0.7C29.6,44.3,29.4,44.1,29.3,43.9L29.3,43.9z M32.6,33.6c0.8,0,1.6,0.3,2.1,0.9c0.5,0.5,0.9,1.3,0.9,2.1
	s-0.3,1.6-0.9,2.1c-0.5,0.5-1.3,0.9-2.1,0.9c-0.8,0-1.6-0.3-2.1-0.9c-0.5-0.5-0.9-1.3-0.9-2.1s0.3-1.6,0.9-2.1
	C31,33.9,31.7,33.6,32.6,33.6L32.6,33.6z M33.3,35.9c-0.2-0.2-0.4-0.3-0.7-0.3c-0.3,0-0.5,0.1-0.7,0.3c-0.2,0.2-0.3,0.4-0.3,0.7
	c0,0.3,0.1,0.5,0.3,0.7c0.2,0.2,0.4,0.3,0.7,0.3c0.3,0,0.5-0.1,0.7-0.3c0.2-0.2,0.3-0.4,0.3-0.7C33.6,36.3,33.5,36,33.3,35.9
	L33.3,35.9z M24.6,33.6c0.8,0,1.6,0.3,2.1,0.9c0.5,0.5,0.9,1.3,0.9,2.1s-0.3,1.6-0.9,2.1c-0.5,0.5-1.3,0.9-2.1,0.9
	c-0.8,0-1.6-0.3-2.1-0.9c-0.5-0.5-0.9-1.3-0.9-2.1s0.3-1.6,0.9-2.1C23,33.9,23.7,33.6,24.6,33.6L24.6,33.6z M25.3,35.9
	c-0.2-0.2-0.4-0.3-0.7-0.3s-0.5,0.1-0.7,0.3c-0.2,0.2-0.3,0.4-0.3,0.7c0,0.3,0.1,0.5,0.3,0.7c0.2,0.2,0.4,0.3,0.7,0.3
	s0.5-0.1,0.7-0.3c0.2-0.2,0.3-0.4,0.3-0.7C25.6,36.3,25.4,36,25.3,35.9L25.3,35.9z M36.6,25.6c0.8,0,1.6,0.3,2.1,0.9
	c0.5,0.5,0.9,1.3,0.9,2.1s-0.3,1.6-0.9,2.1c-0.5,0.5-1.3,0.9-2.1,0.9c-0.8,0-1.6-0.3-2.1-0.9c-0.5-0.5-0.9-1.3-0.9-2.1
	s0.3-1.6,0.9-2.1C35,25.9,35.7,25.6,36.6,25.6L36.6,25.6z M37.3,27.9c-0.2-0.2-0.4-0.3-0.7-0.3c-0.3,0-0.5,0.1-0.7,0.3
	c-0.2,0.2-0.3,0.4-0.3,0.7c0,0.3,0.1,0.5,0.3,0.7c0.2,0.2,0.4,0.3,0.7,0.3c0.3,0,0.5-0.1,0.7-0.3c0.2-0.2,0.3-0.4,0.3-0.7
	C37.6,28.3,37.5,28,37.3,27.9L37.3,27.9z M28.6,25.6c0.8,0,1.6,0.3,2.1,0.9c0.5,0.5,0.9,1.3,0.9,2.1s-0.3,1.6-0.9,2.1
	c-0.5,0.5-1.3,0.9-2.1,0.9c-0.8,0-1.6-0.3-2.1-0.9c-0.5-0.5-0.9-1.3-0.9-2.1s0.3-1.6,0.9-2.1C27,25.9,27.7,25.6,28.6,25.6L28.6,25.6
	z M29.3,27.9c-0.2-0.2-0.4-0.3-0.7-0.3s-0.5,0.1-0.7,0.3c-0.2,0.2-0.3,0.4-0.3,0.7c0,0.3,0.1,0.5,0.3,0.7c0.2,0.2,0.4,0.3,0.7,0.3
	s0.5-0.1,0.7-0.3c0.2-0.2,0.3-0.4,0.3-0.7C29.6,28.3,29.4,28,29.3,27.9L29.3,27.9z M20.6,25.6c0.8,0,1.6,0.3,2.1,0.9
	c0.5,0.5,0.9,1.3,0.9,2.1s-0.3,1.6-0.9,2.1c-0.5,0.5-1.3,0.9-2.1,0.9c-0.8,0-1.6-0.3-2.1-0.9c-0.5-0.5-0.9-1.3-0.9-2.1
	s0.3-1.6,0.9-2.1C19,25.9,19.7,25.6,20.6,25.6L20.6,25.6z M21.3,27.9c-0.2-0.2-0.4-0.3-0.7-0.3s-0.5,0.1-0.7,0.3
	c-0.2,0.2-0.3,0.4-0.3,0.7c0,0.3,0.1,0.5,0.3,0.7c0.2,0.2,0.4,0.3,0.7,0.3s0.5-0.1,0.7-0.3c0.2-0.2,0.3-0.4,0.3-0.7
	C21.6,28.3,21.4,28,21.3,27.9L21.3,27.9z M40.6,17.6c0.8,0,1.6,0.3,2.1,0.9c0.5,0.5,0.9,1.3,0.9,2.1c0,0.8-0.3,1.6-0.9,2.1
	c-0.5,0.5-1.3,0.9-2.1,0.9c-0.8,0-1.6-0.3-2.1-0.9c-0.5-0.5-0.9-1.3-0.9-2.1c0-0.8,0.3-1.6,0.9-2.1C39,17.9,39.7,17.6,40.6,17.6
	L40.6,17.6z M41.3,19.9c-0.2-0.2-0.4-0.3-0.7-0.3c-0.3,0-0.5,0.1-0.7,0.3c-0.2,0.2-0.3,0.4-0.3,0.7c0,0.3,0.1,0.5,0.3,0.7
	c0.2,0.2,0.4,0.3,0.7,0.3c0.3,0,0.5-0.1,0.7-0.3c0.2-0.2,0.3-0.4,0.3-0.7C41.6,20.3,41.5,20,41.3,19.9L41.3,19.9z M32.6,17.6
	c0.8,0,1.6,0.3,2.1,0.9c0.5,0.5,0.9,1.3,0.9,2.1c0,0.8-0.3,1.6-0.9,2.1c-0.5,0.5-1.3,0.9-2.1,0.9c-0.8,0-1.6-0.3-2.1-0.9
	c-0.5-0.5-0.9-1.3-0.9-2.1c0-0.8,0.3-1.6,0.9-2.1C31,17.9,31.7,17.6,32.6,17.6L32.6,17.6z M33.3,19.9c-0.2-0.2-0.4-0.3-0.7-0.3
	c-0.3,0-0.5,0.1-0.7,0.3c-0.2,0.2-0.3,0.4-0.3,0.7c0,0.3,0.1,0.5,0.3,0.7c0.2,0.2,0.4,0.3,0.7,0.3c0.3,0,0.5-0.1,0.7-0.3
	c0.2-0.2,0.3-0.4,0.3-0.7C33.6,20.3,33.5,20,33.3,19.9L33.3,19.9z M24.6,17.6c0.8,0,1.6,0.3,2.1,0.9c0.5,0.5,0.9,1.3,0.9,2.1
	c0,0.8-0.3,1.6-0.9,2.1c-0.5,0.5-1.3,0.9-2.1,0.9c-0.8,0-1.6-0.3-2.1-0.9c-0.5-0.5-0.9-1.3-0.9-2.1c0-0.8,0.3-1.6,0.9-2.1
	C23,17.9,23.7,17.6,24.6,17.6L24.6,17.6z M25.3,19.9c-0.2-0.2-0.4-0.3-0.7-0.3s-0.5,0.1-0.7,0.3c-0.2,0.2-0.3,0.4-0.3,0.7
	c0,0.3,0.1,0.5,0.3,0.7c0.2,0.2,0.4,0.3,0.7,0.3s0.5-0.1,0.7-0.3c0.2-0.2,0.3-0.4,0.3-0.7C25.6,20.3,25.4,20,25.3,19.9L25.3,19.9z
	 M16.6,17.6c0.8,0,1.6,0.3,2.1,0.9c0.5,0.5,0.9,1.3,0.9,2.1c0,0.8-0.3,1.6-0.9,2.1c-0.5,0.5-1.3,0.9-2.1,0.9c-0.8,0-1.6-0.3-2.1-0.9
	c-0.5-0.5-0.9-1.3-0.9-2.1c0-0.8,0.3-1.6,0.9-2.1C15,17.9,15.7,17.6,16.6,17.6L16.6,17.6z M17.3,19.9c-0.2-0.2-0.4-0.3-0.7-0.3
	c-0.3,0-0.5,0.1-0.7,0.3c-0.2,0.2-0.3,0.4-0.3,0.7c0,0.3,0.1,0.5,0.3,0.7c0.2,0.2,0.4,0.3,0.7,0.3c0.3,0,0.5-0.1,0.7-0.3
	c0.2-0.2,0.3-0.4,0.3-0.7C17.6,20.3,17.4,20,17.3,19.9L17.3,19.9z M44.6,9.6c0.8,0,1.6,0.3,2.1,0.9c0.5,0.5,0.9,1.3,0.9,2.1
	s-0.3,1.6-0.9,2.1c-0.5,0.5-1.3,0.9-2.1,0.9c-0.8,0-1.6-0.3-2.1-0.9c-0.5-0.5-0.9-1.3-0.9-2.1s0.3-1.6,0.9-2.1
	C43,9.9,43.7,9.6,44.6,9.6L44.6,9.6z M45.3,11.8c-0.2-0.2-0.4-0.3-0.7-0.3c-0.3,0-0.5,0.1-0.7,0.3c-0.2,0.2-0.3,0.4-0.3,0.7
	c0,0.3,0.1,0.5,0.3,0.7c0.2,0.2,0.4,0.3,0.7,0.3c0.3,0,0.5-0.1,0.7-0.3c0.2-0.2,0.3-0.4,0.3-0.7C45.6,12.3,45.5,12,45.3,11.8
	L45.3,11.8z M36.6,9.6c0.8,0,1.6,0.3,2.1,0.9c0.5,0.5,0.9,1.3,0.9,2.1s-0.3,1.6-0.9,2.1c-0.5,0.5-1.3,0.9-2.1,0.9
	c-0.8,0-1.6-0.3-2.1-0.9c-0.5-0.5-0.9-1.3-0.9-2.1s0.3-1.6,0.9-2.1C35,9.9,35.7,9.6,36.6,9.6L36.6,9.6z M37.3,11.8
	c-0.2-0.2-0.4-0.3-0.7-0.3c-0.3,0-0.5,0.1-0.7,0.3c-0.2,0.2-0.3,0.4-0.3,0.7c0,0.3,0.1,0.5,0.3,0.7c0.2,0.2,0.4,0.3,0.7,0.3
	c0.3,0,0.5-0.1,0.7-0.3c0.2-0.2,0.3-0.4,0.3-0.7C37.6,12.3,37.5,12,37.3,11.8L37.3,11.8z M28.6,9.6c0.8,0,1.6,0.3,2.1,0.9
	c0.5,0.5,0.9,1.3,0.9,2.1s-0.3,1.6-0.9,2.1c-0.5,0.5-1.3,0.9-2.1,0.9c-0.8,0-1.6-0.3-2.1-0.9c-0.5-0.5-0.9-1.3-0.9-2.1
	s0.3-1.6,0.9-2.1C27,9.9,27.7,9.6,28.6,9.6L28.6,9.6z M29.3,11.8c-0.2-0.2-0.4-0.3-0.7-0.3s-0.5,0.1-0.7,0.3
	c-0.2,0.2-0.3,0.4-0.3,0.7c0,0.3,0.1,0.5,0.3,0.7c0.2,0.2,0.4,0.3,0.7,0.3s0.5-0.1,0.7-0.3c0.2-0.2,0.3-0.4,0.3-0.7
	C29.6,12.3,29.4,12,29.3,11.8L29.3,11.8z M20.6,9.6c0.8,0,1.6,0.3,2.1,0.9c0.5,0.5,0.9,1.3,0.9,2.1s-0.3,1.6-0.9,2.1
	c-0.5,0.5-1.3,0.9-2.1,0.9c-0.8,0-1.6-0.3-2.1-0.9c-0.5-0.5-0.9-1.3-0.9-2.1s0.3-1.6,0.9-2.1C19,9.9,19.7,9.6,20.6,9.6L20.6,9.6z
	 M21.3,11.8c-0.2-0.2-0.4-0.3-0.7-0.3s-0.5,0.1-0.7,0.3c-0.2,0.2-0.3,0.4-0.3,0.7c0,0.3,0.1,0.5,0.3,0.7c0.2,0.2,0.4,0.3,0.7,0.3
	s0.5-0.1,0.7-0.3c0.2-0.2,0.3-0.4,0.3-0.7C21.6,12.3,21.4,12,21.3,11.8L21.3,11.8z M13.3,11.8c-0.2-0.2-0.4-0.3-0.7-0.3
	s-0.5,0.1-0.7,0.3c-0.2,0.2-0.3,0.4-0.3,0.7c0,0.3,0.1,0.5,0.3,0.7c0.2,0.2,0.4,0.3,0.7,0.3s0.5-0.1,0.7-0.3
	c0.2-0.2,0.3-0.4,0.3-0.7C13.6,12.3,13.4,12,13.3,11.8L13.3,11.8z"/>
</svg>