<?xml version="1.0" encoding="utf-8"?>
<svg version="1.1" xmlns="http://www.w3.org/2000/svg" viewBox="0 0 57 57">
    <path d="M29,48h-3.1c-0.4,0-0.7-0.2-0.9-0.5c-0.8-1.1-1.4-2.6-1.9-4.4c-0.4,1.8-1,3.3-1.7,4.4
		c-0.2,0.3-0.5,0.4-0.8,0.4L18,48h-2.6c-0.4,0-0.7-0.2-0.9-0.5c-0.8-1.2-1.4-3-1.9-5.1c-0.4-2.1-0.7-4.5-0.7-7c0-2.6,0.4-5.2,1-7.3
		c0.6-1.9,1.3-3.6,2.3-4.6c-0.4-1.7-0.7-2.9-1-3.8c-0.4-1.2-0.6-2-0.6-3.1c0-1.2,0.5-2.4,1.2-3.2c0.8-0.8,1.9-1.4,3.1-1.4
		c1.2,0,2.3,0.5,3.1,1.4c0.8,0.8,1.2,2,1.2,3.2c0,1.1-0.2,1.9-0.6,3.1c-0.3,0.9-0.6,2-1,3.8c0.8,0.9,1.5,2.2,2,3.9
		c0.1-0.5,0.3-1,0.4-1.5c0.7-2.2,1.6-4,2.7-5.2c-0.4-1.9-0.9-3.2-1.2-4.3C24.3,15.1,24,14.2,24,13c0-1.4,0.6-2.6,1.5-3.5l0.1-0.1
		C26.4,8.5,27.7,8,29,8c1.4,0,2.6,0.6,3.5,1.5c0.9,0.9,1.5,2.2,1.5,3.5c0,1.2-0.3,2.1-0.7,3.4c-0.3,1-0.8,2.3-1.2,4.3
		c1.1,1.1,2.1,3,2.7,5.2c0.1,0.5,0.3,1,0.4,1.5c0.5-1.6,1.2-3,2-3.9c-0.4-1.7-0.7-2.9-1-3.8c-0.4-1.2-0.6-2-0.6-3.1
		c0-1.2,0.5-2.4,1.2-3.2c0.8-0.8,1.9-1.4,3.1-1.4c1.2,0,2.3,0.5,3.1,1.4c0.8,0.8,1.2,2,1.2,3.2c0,1.1-0.2,1.9-0.6,3.1
		c-0.3,0.9-0.6,2-1,3.8c0.9,1,1.7,2.7,2.3,4.6c0.6,2.2,1,4.7,1,7.3c0,2.5-0.2,4.9-0.7,7c-0.5,2.2-1.1,4-1.9,5.2
		c-0.2,0.3-0.5,0.4-0.8,0.4L40,48h-2.6c-0.4,0-0.7-0.2-0.9-0.5c-0.7-1.1-1.3-2.6-1.7-4.3c-0.5,1.8-1.2,3.3-2,4.4
		c-0.2,0.3-0.5,0.4-0.8,0.4L29,48L29,48z M21.5,30.1h-6.9c-0.3,1.6-0.5,3.4-0.5,5.3c0,2.4,0.2,4.7,0.6,6.6c0.3,1.7,0.8,3,1.4,4h4
		c0.5-1,1-2.4,1.4-4c0.4-1.9,0.6-4.2,0.6-6.6C22,33.6,21.8,31.8,21.5,30.1L21.5,30.1z M15,28.1H21c-0.5-1.5-1-2.7-1.7-3.4h-2.5
		C16.1,25.5,15.5,26.6,15,28.1L15,28.1z M17.2,22.7h1.7c0.4-1.6,0.7-2.8,1-3.7c0.3-1,0.5-1.7,0.5-2.5c0-0.7-0.3-1.4-0.7-1.9
		c-0.4-0.4-1-0.7-1.6-0.7c-0.6,0-1.2,0.3-1.6,0.7c-0.4,0.5-0.7,1.1-0.7,1.9c0,0.8,0.2,1.5,0.5,2.5C16.5,20,16.8,21.1,17.2,22.7
		L17.2,22.7z M43.5,30.1h-6.9c-0.3,1.6-0.5,3.4-0.5,5.3c0,2.4,0.2,4.7,0.6,6.6c0.3,1.7,0.8,3,1.4,4h4c0.5-1,1-2.4,1.4-4
		c0.4-1.9,0.6-4.2,0.6-6.6C44,33.6,43.8,31.8,43.5,30.1L43.5,30.1z M37.1,28.1H43c-0.5-1.5-1-2.7-1.7-3.4h-2.5
		C38.1,25.5,37.5,26.6,37.1,28.1L37.1,28.1z M39.2,22.7h1.7c0.4-1.6,0.7-2.8,1-3.7c0.3-1,0.5-1.7,0.5-2.5c0-0.7-0.3-1.4-0.7-1.9
		c-0.4-0.5-1-0.7-1.6-0.7c-0.6,0-1.2,0.3-1.6,0.7c-0.4,0.5-0.7,1.1-0.7,1.9c0,0.8,0.2,1.5,0.5,2.5C38.5,20,38.8,21.1,39.2,22.7
		L39.2,22.7z M33.4,28h-8.7c-0.4,1.9-0.7,3.9-0.7,6c0,2.7,0.3,5.2,0.8,7.4c0.4,1.9,1,3.5,1.7,4.6h5.1c0.7-1.1,1.3-2.7,1.7-4.6
		c0.5-2.2,0.8-4.7,0.8-7.4C34,31.9,33.8,29.9,33.4,28L33.4,28z M25.2,26h7.6c-0.6-1.8-1.3-3.2-2.2-4h-3.2
		C26.5,22.8,25.8,24.3,25.2,26L25.2,26z M27.8,20h2.4c0.4-1.9,0.9-3.2,1.2-4.2c0.4-1.1,0.6-1.9,0.6-2.8c0-0.8-0.3-1.6-0.9-2.1
		C30.6,10.3,29.8,10,29,10c-0.8,0-1.5,0.3-2.1,0.8l0,0C26.3,11.4,26,12.2,26,13c0,0.9,0.2,1.7,0.6,2.8C27,16.8,27.4,18.1,27.8,20
		L27.8,20z"/>
</svg>