<?xml version="1.0" encoding="utf-8"?>
<!-- Generator: Adobe Illustrator 19.1.1, SVG Export Plug-In . SVG Version: 6.00 Build 0)  -->
<svg version="1.1" id="Слой_1" xmlns="http://www.w3.org/2000/svg" xmlns:xlink="http://www.w3.org/1999/xlink" x="0px" y="0px"
	 viewBox="0 0 56.7 56.7" style="enable-background:new 0 0 56.7 56.7;" xml:space="preserve">
<style type="text/css">
	.st0{fill-rule:evenodd;clip-rule:evenodd;}
</style>
<path class="st0" d="M33.4,13.3c0-0.6,0.4-1,1-1c0.6,0,1,0.4,1,1v2c0,0.6-0.4,1-1,1c-0.6,0-1-0.4-1-1V13.3L33.4,13.3z M16.3,48.4h12
	c0.6,0,1-0.4,1-1c0-0.6-0.4-1-1-1h-5V35.7l3.3-3.9c1,0.7,2,1.3,3.2,1.7c1.4,0.5,2.9,0.8,4.5,0.8c3.6,0,6.8-1.5,9.2-3.8
	c2.4-2.4,3.8-5.6,3.8-9.2c0-3.6-1.4-6.8-3.8-9.1l-0.1-0.1c-2.4-2.4-5.6-3.8-9.2-3.8c-3.6,0-6.8,1.5-9.2,3.8c-2.1,2.1-3.5,5-3.8,8.2
	h-11c-0.6,0-1,0.4-1,1c0,0.3,0.1,0.5,0.3,0.7l11.7,13.7v10.6h-5c-0.6,0-1,0.4-1,1C15.3,47.9,15.8,48.4,16.3,48.4L16.3,48.4z
	 M28,30.3c0.8,0.6,1.6,1,2.6,1.4c1.2,0.4,2.5,0.7,3.8,0.7c3,0,5.8-1.2,7.8-3.2c2-2,3.2-4.7,3.2-7.8c0-3-1.2-5.8-3.2-7.7l-0.1,0
	c-2-2-4.7-3.2-7.8-3.2c-3,0-5.8,1.2-7.8,3.2c-1.8,1.8-2.9,4.1-3.2,6.8h11c0.2,0,0.5,0.1,0.6,0.2c0.4,0.4,0.5,1,0.1,1.4L28,30.3
	L28,30.3z M12.5,22.3h9.8h9.8l-6.4,7.5l0,0l-3.4,4L12.5,22.3L12.5,22.3z M33.4,27.3c0-0.6,0.4-1,1-1c0.6,0,1,0.4,1,1v2
	c0,0.6-0.4,1-1,1c-0.6,0-1-0.4-1-1V27.3L33.4,27.3z M37.9,26.3c-0.4-0.4-0.4-1,0-1.4c0.4-0.4,1-0.4,1.4,0l1.4,1.4
	c0.4,0.4,0.4,1,0,1.4c-0.4,0.4-1,0.4-1.4,0L37.9,26.3L37.9,26.3z M39.3,17.8c-0.4,0.4-1,0.4-1.4,0c-0.4-0.4-0.4-1,0-1.4l1.4-1.4
	c0.4-0.4,1-0.4,1.4,0c0.4,0.4,0.4,1,0,1.4L39.3,17.8L39.3,17.8z M28,16.4c-0.4-0.4-0.4-1,0-1.4c0.4-0.4,1-0.4,1.4,0l1.4,1.4
	c0.4,0.4,0.4,1,0,1.4c-0.4,0.4-1,0.4-1.4,0L28,16.4L28,16.4z M40.4,22.3c-0.6,0-1-0.4-1-1c0-0.6,0.4-1,1-1h2c0.6,0,1,0.4,1,1
	c0,0.6-0.4,1-1,1H40.4z"/>
</svg>
