<?xml version="1.0" encoding="utf-8"?>
<!-- Generator: Adobe Illustrator 19.1.1, SVG Export Plug-In . SVG Version: 6.00 Build 0)  -->
<svg version="1.1" id="Слой_1" xmlns="http://www.w3.org/2000/svg" xmlns:xlink="http://www.w3.org/1999/xlink" x="0px" y="0px"
	 viewBox="0 0 56.7 56.7" style="enable-background:new 0 0 56.7 56.7;" xml:space="preserve">
<style type="text/css">
	.st0{fill-rule:evenodd;clip-rule:evenodd;}
</style>
<path class="st0" d="M27.1,9.6c0-0.6,0.4-1,1-1c0.6,0,1,0.4,1,1v5c4.3,0.2,8.2,2.1,11,5c3.1,3.1,5,7.3,5,12c0,4.7-1.9,8.9-5,12
	c-3.1,3.1-7.3,5-12,5c-4.7,0-8.9-1.9-12-5c-3.1-3.1-5-7.3-5-12c0-4.7,1.9-8.9,5-12c2.9-2.9,6.7-4.7,11-5V9.6L27.1,9.6z M13.3,30.6
	h5.9c0-1.7,0.2-3.2,0.5-4.7c-0.9,0.3-1.7,0.6-2.4,1C15.2,27.9,13.7,29.2,13.3,30.6L13.3,30.6z M21.1,30.6h6v-6
	c-1.9,0.1-3.7,0.3-5.3,0.7C21.4,26.9,21.2,28.7,21.1,30.6L21.1,30.6z M29.1,30.6h6c-0.1-1.9-0.3-3.7-0.7-5.3
	c-1.6-0.4-3.4-0.6-5.3-0.7V30.6L29.1,30.6z M37.1,30.6H43c-0.5-1.4-1.9-2.7-4-3.8c-0.7-0.4-1.5-0.7-2.4-1
	C36.9,27.4,37.1,28.9,37.1,30.6L37.1,30.6z M43,32.6h-5.9c0,1.7-0.2,3.2-0.5,4.7c0.9-0.3,1.7-0.6,2.4-1C41.1,35.3,42.5,34,43,32.6
	L43,32.6z M35.1,32.6h-6v6c1.9-0.1,3.7-0.3,5.3-0.7C34.8,36.3,35,34.5,35.1,32.6L35.1,32.6z M27.1,32.6h-6c0.1,1.9,0.3,3.7,0.7,5.3
	c1.6,0.4,3.4,0.6,5.3,0.7V32.6L27.1,32.6z M19.1,32.6h-5.9c0.5,1.4,1.9,2.7,4,3.8c0.7,0.4,1.5,0.7,2.4,1
	C19.3,35.8,19.2,34.3,19.1,32.6L19.1,32.6z M14,26.5c0.7-0.5,1.5-1,2.4-1.5c1.1-0.6,2.4-1,3.8-1.4c0.4-1.4,0.9-2.7,1.4-3.8
	c0.4-0.9,0.9-1.7,1.5-2.4c-2.1,0.8-4,2-5.5,3.5C16,22.5,14.7,24.4,14,26.5L14,26.5z M22.4,23.1c1.5-0.3,3.1-0.5,4.7-0.5v-5.9
	c-1.4,0.5-2.7,1.9-3.8,4C23,21.4,22.7,22.2,22.4,23.1L22.4,23.1z M29.1,22.6c1.7,0,3.2,0.2,4.7,0.5c-0.3-0.9-0.6-1.7-1-2.4
	c-1-2.1-2.3-3.5-3.8-4V22.6L29.1,22.6z M36.1,23.6c1.4,0.4,2.7,0.9,3.8,1.4c0.9,0.4,1.7,0.9,2.4,1.5c-0.8-2.1-2-4-3.5-5.5
	c-1.5-1.5-3.4-2.8-5.5-3.5c0.5,0.7,1,1.5,1.5,2.4C35.2,21,35.7,22.2,36.1,23.6L36.1,23.6z M42.2,36.7c-0.7,0.5-1.5,1-2.4,1.5
	c-1.1,0.6-2.4,1-3.8,1.4c-0.4,1.4-0.9,2.7-1.4,3.8c-0.4,0.9-0.9,1.7-1.5,2.4c2.1-0.8,4-2,5.5-3.5C40.3,40.7,41.5,38.8,42.2,36.7
	L42.2,36.7z M33.9,40.1c-1.5,0.3-3.1,0.5-4.7,0.5v5.9c1.4-0.5,2.7-1.9,3.8-4C33.2,41.7,33.6,40.9,33.9,40.1L33.9,40.1z M27.1,40.6
	c-1.7,0-3.2-0.2-4.7-0.5c0.3,0.9,0.6,1.7,1,2.4c1,2.1,2.3,3.5,3.8,4V40.6L27.1,40.6z M20.1,39.6c-1.4-0.4-2.7-0.9-3.8-1.4
	c-0.9-0.4-1.7-0.9-2.4-1.5c0.8,2.1,2,4,3.5,5.5c1.5,1.5,3.4,2.8,5.5,3.5c-0.5-0.7-1-1.5-1.5-2.4C21,42.2,20.5,41,20.1,39.6z"/>
</svg>
