<?xml version="1.0" encoding="utf-8"?>
<!-- Generator: Adobe Illustrator 19.1.1, SVG Export Plug-In . SVG Version: 6.00 Build 0)  -->
<svg version="1.1" id="Слой_1" xmlns="http://www.w3.org/2000/svg" xmlns:xlink="http://www.w3.org/1999/xlink" x="0px" y="0px"
	 viewBox="0 0 56.7 56.7" style="enable-background:new 0 0 56.7 56.7;" xml:space="preserve">
<style type="text/css">
	.st0{fill-rule:evenodd;clip-rule:evenodd;}
</style>
<path class="st0" d="M9.3,10.6h38c0.6,0,1,0.4,1,1v34c0,0.6-0.4,1-1,1h-38c-0.6,0-1-0.4-1-1v-34C8.3,11,8.8,10.6,9.3,10.6L9.3,10.6z
	 M13.3,40.6c-0.6,0-1,0.4-1,1c0,0.5,0.4,1,1,1c0.6,0,1-0.4,1-1C14.3,41.1,13.9,40.6,13.3,40.6L13.3,40.6z M13.3,14.6
	c-0.6,0-1,0.4-1,1c0,0.5,0.4,1,1,1c0.6,0,1-0.4,1-1C14.3,15,13.9,14.6,13.3,14.6L13.3,14.6z M18.3,27.6c0-1.9,0.8-3.7,2.1-5
	c1.3-1.3,3-2,5-2c0.6,0,1-0.4,1-1s-0.4-1-1-1c-2.5,0-4.7,1-6.4,2.6l0,0c-1.6,1.6-2.6,3.9-2.6,6.4c0,0.6,0.4,1,1,1
	S18.3,28.2,18.3,27.6L18.3,27.6z M25.3,24.6c-0.8,0-1.6,0.3-2.1,0.9c-0.5,0.5-0.9,1.3-0.9,2.1c0,0.8,0.3,1.5,0.8,2.1l0.1,0.1
	c0.5,0.5,1.3,0.9,2.1,0.9c0.8,0,1.5-0.3,2.1-0.8l0.1-0.1c0.5-0.5,0.9-1.3,0.9-2.1c0-0.8-0.3-1.6-0.9-2.1
	C26.9,24.9,26.1,24.6,25.3,24.6L25.3,24.6z M26,26.9c-0.2-0.2-0.4-0.3-0.7-0.3c-0.3,0-0.5,0.1-0.7,0.3c-0.2,0.2-0.3,0.4-0.3,0.7
	c0,0.3,0.1,0.5,0.3,0.7l0,0c0.2,0.2,0.4,0.3,0.7,0.3c0.3,0,0.5-0.1,0.7-0.3l0,0c0.2-0.2,0.3-0.4,0.3-0.7
	C26.3,27.3,26.2,27.1,26,26.9L26,26.9L26,26.9z M42.4,23.2l-3.8,9.4h-1.3c0.6-1.5,1-3.2,1-5c0-3.6-1.4-6.8-3.8-9.2l0,0
	c-2.4-2.4-5.6-3.8-9.2-3.8c-3.6,0-6.8,1.4-9.1,3.8l-0.1,0.1c-2.4,2.4-3.8,5.6-3.8,9.2c0,3.6,1.4,6.8,3.8,9.2l0,0
	c2.4,2.4,5.6,3.8,9.2,3.8c3.6,0,6.8-1.5,9.2-3.8c0.7-0.7,1.3-1.4,1.8-2.2l3,0c0.4,0,0.8-0.2,0.9-0.6l4-10c0.2-0.5,0-1.1-0.6-1.3
	C43.2,22.5,42.6,22.7,42.4,23.2L42.4,23.2z M33.8,34.6l-4.5,0c-0.6,0-1-0.4-1-1s0.4-1,1-1h5.8c0.8-1.5,1.2-3.2,1.2-5
	c0-3-1.2-5.8-3.2-7.8c-2-2-4.7-3.2-7.8-3.2c-3,0-5.7,1.2-7.7,3.2l0,0c-2,2-3.2,4.7-3.2,7.8c0,3,1.2,5.8,3.2,7.8c2,2,4.7,3.2,7.8,3.2
	c3,0,5.8-1.2,7.8-3.2C33.3,35.1,33.6,34.9,33.8,34.6L33.8,34.6z M41.3,14.6c-0.8,0-1.6,0.3-2.1,0.9c-0.5,0.5-0.9,1.3-0.9,2.1
	c0,0.8,0.3,1.6,0.9,2.1s1.3,0.9,2.1,0.9c0.8,0,1.6-0.3,2.1-0.9c0.5-0.5,0.9-1.3,0.9-2.1c0-0.8-0.3-1.6-0.9-2.1
	C42.9,14.9,42.2,14.6,41.3,14.6L41.3,14.6z M42,16.9c-0.2-0.2-0.4-0.3-0.7-0.3s-0.5,0.1-0.7,0.3c-0.2,0.2-0.3,0.4-0.3,0.7
	c0,0.3,0.1,0.5,0.3,0.7c0.2,0.2,0.4,0.3,0.7,0.3s0.5-0.1,0.7-0.3c0.2-0.2,0.3-0.4,0.3-0.7C42.3,17.3,42.2,17.1,42,16.9L42,16.9z
	 M39.3,42.6h2l0,0l0,0h2c0.6,0,1-0.4,1-1s-0.4-1-1-1h-1v-3c0-0.6-0.4-1-1-1c-0.6,0-1,0.4-1,1v3h-1c-0.6,0-1,0.4-1,1
	S38.8,42.6,39.3,42.6L39.3,42.6z M46.3,12.6h-36v32h36V12.6z"/>
</svg>
