<?xml version="1.0" encoding="utf-8"?>
<!-- Generator: Adobe Illustrator 19.1.1, SVG Export Plug-In . SVG Version: 6.00 Build 0)  -->
<svg version="1.1" id="Слой_1" xmlns="http://www.w3.org/2000/svg" xmlns:xlink="http://www.w3.org/1999/xlink" x="0px" y="0px"
	 viewBox="0 0 56.7 56.7" style="enable-background:new 0 0 56.7 56.7;" xml:space="preserve">
<style type="text/css">
	.st0{fill-rule:evenodd;clip-rule:evenodd;}
</style>
<path class="st0" d="M39.3,14h3c0.6,0,1,0.4,1,1v32c0,0.6-0.4,1-1,1h-28c-0.6,0-1-0.4-1-1V15c0-0.6,0.4-1,1-1h3v-1c0-0.6,0.4-1,1-1
	h5.1c0.2-1,0.7-1.9,1.4-2.5C25.7,8.5,26.9,8,28.3,8c1.4,0,2.6,0.6,3.5,1.5c0.7,0.7,1.2,1.6,1.4,2.5h5.1c0.6,0,1,0.4,1,1V14L39.3,14z
	 M20.3,40h4c0.6,0,1-0.4,1-1s-0.4-1-1-1h-4c-0.6,0-1,0.4-1,1S19.8,40,20.3,40L20.3,40z M36.3,38h-8c-0.6,0-1,0.4-1,1s0.4,1,1,1h8
	c0.6,0,1-0.4,1-1S36.9,38,36.3,38L36.3,38z M36.3,34h-4c-0.6,0-1,0.4-1,1s0.4,1,1,1h4c0.6,0,1-0.4,1-1S36.9,34,36.3,34L36.3,34z
	 M20.3,36h8c0.6,0,1-0.4,1-1s-0.4-1-1-1h-8c-0.6,0-1,0.4-1,1S19.8,36,20.3,36L20.3,36z M20.3,32h4c0.6,0,1-0.4,1-1c0-0.6-0.4-1-1-1
	h-4c-0.6,0-1,0.4-1,1C19.3,31.5,19.8,32,20.3,32L20.3,32z M36.3,30h-8c-0.6,0-1,0.4-1,1c0,0.6,0.4,1,1,1h8c0.6,0,1-0.4,1-1
	C37.3,30.4,36.9,30,36.3,30L36.3,30z M17.3,16h-2v30h26V16h-2v5c0,0.6-0.4,1-1,1h-20c-0.6,0-1-0.4-1-1V16L17.3,16z M23.4,14h-4.1v1
	v5h18v-5v-1h-4.1c-0.2,1-0.7,1.9-1.4,2.5c-0.9,0.9-2.2,1.5-3.5,1.5c-1.4,0-2.6-0.6-3.5-1.5l-0.1-0.1C24.1,15.8,23.6,14.9,23.4,14
	L23.4,14z M30.4,10.9c-0.5-0.5-1.3-0.9-2.1-0.9c-0.8,0-1.6,0.3-2.1,0.9c-0.5,0.5-0.9,1.3-0.9,2.1c0,0.8,0.3,1.5,0.8,2.1l0,0
	c0.5,0.5,1.3,0.9,2.1,0.9c0.8,0,1.6-0.3,2.1-0.9c0.5-0.5,0.9-1.3,0.9-2.1C31.3,12.2,31,11.4,30.4,10.9L30.4,10.9z M36.3,26h-4
	c-0.6,0-1,0.4-1,1c0,0.6,0.4,1,1,1h4c0.6,0,1-0.4,1-1C37.3,26.4,36.9,26,36.3,26L36.3,26z M20.3,28h8c0.6,0,1-0.4,1-1
	c0-0.6-0.4-1-1-1h-8c-0.6,0-1,0.4-1,1C19.3,27.5,19.8,28,20.3,28z"/>
</svg>
