<?xml version="1.0" encoding="utf-8"?>
<!-- Generator: Adobe Illustrator 19.1.1, SVG Export Plug-In . SVG Version: 6.00 Build 0)  -->
<svg version="1.1" id="Capa_1" xmlns="http://www.w3.org/2000/svg" xmlns:xlink="http://www.w3.org/1999/xlink" x="0px" y="0px"
	 viewBox="454.7 -0.7 56.7 56.7" style="enable-background:new 454.7 -0.7 56.7 56.7;" xml:space="preserve">
<g>
	<g>
		<path d="M499,8.3h-16c-0.6,0-1.1,0.5-1.1,1.1v4.8c-0.4-0.1-0.7-0.1-1.1-0.1c-2.5,0-4.5,2-4.5,4.5s2,4.5,4.5,4.5
			c0.4,0,0.8,0,1.1-0.1v3.5h-5.4c-0.4,0-0.9,0.3-1,0.7c-0.2,0.4-0.1,0.9,0.2,1.2c0.4,0.4,0.6,1,0.6,1.5c0,1.3-1,2.3-2.3,2.3
			s-2.3-1-2.3-2.3c0-0.6,0.2-1.1,0.6-1.5c0.3-0.3,0.4-0.8,0.2-1.2c-0.2-0.4-0.6-0.7-1-0.7h-6.6c-0.3,0-0.6,0.1-0.8,0.3
			c-0.2,0.2-0.3,0.5-0.3,0.8v16c0,1.9,1.5,3.4,3.4,3.4H499c1.9,0,3.4-1.5,3.4-3.4V11.7C502.4,9.8,500.8,8.3,499,8.3z M481.9,39.3
			L481.9,39.3C481.9,39.3,481.9,39.3,481.9,39.3C481.9,39.3,481.9,39.3,481.9,39.3C481.9,39.3,481.9,39.3,481.9,39.3v5.5H467
			c-0.6,0-1.1-0.5-1.1-1.1V28.8h3.6c-0.1,0.4-0.1,0.8-0.1,1.1c0,2.5,2,4.5,4.5,4.5s4.5-2,4.5-4.5c0-0.4,0-0.8-0.1-1.1h3.5
			c0,0.5,0,4.9,0,5.4v0c0,1,1.2,1.5,1.9,0.8c0.4-0.4,1-0.6,1.5-0.6c1.3,0,2.3,1,2.3,2.3c0,1.3-1,2.3-2.3,2.3c-0.6,0-1.1-0.2-1.5-0.6
			C483,37.8,481.9,38.3,481.9,39.3z M500.1,43.7c0,0.6-0.5,1.1-1.1,1.1h-14.8v-3.6c0.4,0.1,0.7,0.1,1.1,0.1c2.5,0,4.5-2,4.5-4.5
			c0-2.5-2-4.5-4.5-4.5c-0.4,0-0.8,0-1.1,0.1v-3.5h5.4c0.4,0,0.9-0.3,1-0.7c0.2-0.4,0.1-0.9-0.2-1.2c-0.4-0.4-0.6-1-0.6-1.5
			c0-1.3,1-2.3,2.3-2.3c1.3,0,2.3,1,2.3,2.3c0,0.6-0.2,1.1-0.6,1.5c-0.3,0.3-0.4,0.8-0.2,1.2c0.2,0.4,0.6,0.7,1,0.7h5.5V43.7z
			 M500.1,26.6h-3.6c0.1-0.4,0.1-0.7,0.1-1.1c0-2.5-2-4.5-4.5-4.5c-2.5,0-4.5,2-4.5,4.5c0,0.4,0,0.8,0.1,1.1h-3.5v-5.4
			c0-1-1.1-1.5-1.9-0.8c-0.4,0.4-1,0.6-1.5,0.6c-1.3,0-2.3-1-2.3-2.3s1-2.3,2.3-2.3c0.6,0,1.1,0.2,1.5,0.6c0.7,0.6,1.9,0.1,1.9-0.8
			v-5.5H499c0.6,0,1.1,0.5,1.1,1.1V26.6z"/>
	</g>
</g>
</svg>
