<?xml version="1.0" encoding="utf-8"?>
<!-- Generator: Adobe Illustrator 19.1.1, SVG Export Plug-In . SVG Version: 6.00 Build 0)  -->
<svg version="1.1" id="Слой_1" xmlns="http://www.w3.org/2000/svg" xmlns:xlink="http://www.w3.org/1999/xlink" x="0px" y="0px"
	 viewBox="0 0 56.7 56.7" style="enable-background:new 0 0 56.7 56.7;" xml:space="preserve">
<style type="text/css">
	.st0{fill-rule:evenodd;clip-rule:evenodd;}
</style>
<path class="st0" d="M45.2,41.5c0,2.1-1.6,3.9-4.1,5.1c-2.3,1.2-5.5,1.9-8.9,1.9c-3.5,0-6.6-0.7-8.9-1.9c-2.5-1.3-4.1-3.1-4.1-5.1
	c0,0,0-0.1,0-0.1c0.1-1.4,1.2-2.3,2.8-3c-0.6-3.4-2.2-3.7-4-4.1c-1.5-0.3-3.1-0.7-4.5-2.1c-1.5-1.5-2.1-3.2-2.1-4.9
	c0-0.9,0.2-1.7,0.5-2.5c0.3-0.8,0.8-1.5,1.5-2.2c1.3-1.3,3.1-2.1,5.3-2.1c3.4,0,7.4,3.3,9.8,5.5c0.2-0.3,0.5-0.7,0.8-1l-0.1-6.5h-5
	c-0.3,0-0.5-0.1-0.7-0.3l-4-4c-0.4-0.4-0.4-1,0-1.4c0.2-0.2,0.5-0.3,0.7-0.3h8.3l-1.2-2.6c-0.2-0.5,0-1.1,0.5-1.3
	c0.1-0.1,0.3-0.1,0.4-0.1l4,0h4c0.1,0,0.3,0,0.4,0.1c0.5,0.2,0.7,0.8,0.5,1.3l-1.2,2.6H44c0.3,0,0.5,0.1,0.7,0.3
	c0.4,0.4,0.4,1,0,1.4l-4,4c-0.2,0.2-0.4,0.3-0.7,0.3h-4.8l0.1,6.7c1.4,1.6,2.1,3.5,2.1,5.3c0,1.9-0.7,3.7-2,5.2
	c0.5,0.5,2.1,1,3.8,1.5c2.9,0.9,5.9,1.9,6,4.1C45.2,41.4,45.2,41.5,45.2,41.5L45.2,41.5z M23.9,37.7c0.4-0.1,0.9-0.3,1.3-0.4
	c1.7-0.5,3.3-1.1,3.8-1.5c-1.3-1.5-2-3.4-2-5.2c0-0.9,0.2-1.8,0.5-2.6c-2.2-2-5.9-5.4-8.8-5.4c-1.6,0-3,0.6-3.9,1.6
	c-0.4,0.4-0.8,1-1,1.5c-0.2,0.6-0.4,1.1-0.4,1.8c0,1.2,0.5,2.4,1.5,3.5c1,1,2.3,1.3,3.5,1.6C20.8,32.9,23,33.4,23.9,37.7L23.9,37.7z
	 M23.6,39.9c-0.1,0-0.2,0.1-0.3,0.1c-0.4,0.2-0.8,0.3-1.1,0.5h20c-0.9-0.5-2.3-0.9-3.6-1.4c-2.2-0.7-4.3-1.4-5.1-2.6h-1.3h-1.3
	c-0.8,1.2-2.9,1.9-5.1,2.6C25,39.4,24.3,39.7,23.6,39.9L23.6,39.9z M33.2,18.5h-1.1h-0.9l0.1,6h1h0h1L33.2,18.5L33.2,18.5z
	 M32.2,10.5h-2.4l1,2H32h0.2h1.4l1-2H32.2L32.2,10.5z M34.3,14.5c0,0-0.1,0-0.1,0h-2H32h-1.8c0,0-0.1,0-0.1,0h-7.5l2,2h7.5h7.5l2-2
	H34.3L34.3,14.5z M32.2,26.5L32.2,26.5h-1.6c-1.1,1.2-1.6,2.6-1.6,4c0,1.4,0.5,2.8,1.6,4l1.6,0h1.6c1-1.2,1.6-2.6,1.6-4
	c0-1.4-0.5-2.8-1.6-4H32.2L32.2,26.5z M40.2,44.9c1.3-0.7,2.3-1.5,2.7-2.4H21.4c0.4,0.9,1.4,1.7,2.7,2.4c2,1,4.9,1.6,8,1.6
	S38.2,45.9,40.2,44.9z"/>
</svg>
