<?xml version="1.0" encoding="utf-8"?>
<!-- Generator: Adobe Illustrator 19.1.1, SVG Export Plug-In . SVG Version: 6.00 Build 0)  -->
<svg version="1.1" id="Слой_1" xmlns="http://www.w3.org/2000/svg" xmlns:xlink="http://www.w3.org/1999/xlink" x="0px" y="0px"
	 viewBox="0 0 56.7 56.7" style="enable-background:new 0 0 56.7 56.7;" xml:space="preserve">
<style type="text/css">
	.st0{fill-rule:evenodd;clip-rule:evenodd;}
</style>
<path class="st0" d="M16.4,30.5c0.1-0.1,0.1-0.1,0.2-0.1c3-1.7,5-4.2,6.3-7.2c0,0,0-0.1,0-0.1c0.1-0.3,0.3-0.6,0.4-0.9
	c1.2-3.4,1.8-7.3,1.9-11.6c-2.6,0-4.9,0-7.2,0c-2.3,0-4.6-0.1-7.2,0l0,17.1c0.8,0.1,1.7,0.4,2.6,0.8c1.3-1.4,2.5-3,3.4-4.9
	c1-2,1.7-4.1,2-6.3c0.1-0.5,0.6-0.9,1.1-0.8c0.5,0.1,0.9,0.6,0.8,1.1c-0.4,2.4-1.1,4.7-2.2,6.8c-0.9,1.9-2.1,3.6-3.4,5
	C15.6,29.8,16,30.1,16.4,30.5L16.4,30.5z M45.8,46.5c0.6,0,1,0.4,1,1s-0.4,1-1,1h-2h-2c-0.6,0-1-0.4-1-1s0.4-1,1-1h1v-16h-3
	c-0.6,0-1-0.4-1-1c0-0.6,0.4-1,1-1h4h4c0.6,0,1,0.4,1,1c0,0.6-0.4,1-1,1h-3v16H45.8L45.8,46.5z M30.8,36.5H20.4
	c0.9,2.2,1.6,4.8,2.1,8h8.3V36.5L30.8,36.5z M18,36.1c1.3,2.5,2.2,5.9,2.7,10.4c-1.9,0-3.4,0-4.9,0c-1.5,0-3.1,0-5,0l0-16.9
	c0.7,0.1,1.5,0.4,2.4,0.9c0.4,1,0.7,2.3,1,3.6c0.3,1.7,0.5,3.5,0.6,5.4c0,0.5,0.5,1,1.1,0.9c0.5,0,1-0.5,0.9-1.1
	c-0.1-1.9-0.3-3.8-0.7-5.6c-0.1-0.3-0.1-0.6-0.2-0.9c0.4,0.5,0.8,1,1.2,1.6c0.2,0.4,0.5,0.8,0.7,1.2C17.9,35.9,17.9,36,18,36.1
	L18,36.1z M19.4,34.5c-0.2-0.4-0.4-0.7-0.6-1c-0.3-0.5-0.7-1-1-1.5c3.1-1.8,5.3-4.4,6.8-7.5h5.3c0.8,0,1.6,0.3,2.1,0.9l0,0
	c0.5,0.5,0.8,1.3,0.8,2.1l0,5h-1c-0.6,0-1,0.4-1,1v1H19.4L19.4,34.5z M38.8,45.3c0,0.1,0,0.1,0,0.2c0,0.6-0.4,1-1,1h-6h-9.1
	c0,0.3,0.1,0.6,0.1,0.9c0,0.5-0.4,1-0.9,1.1c-0.1,0-0.1,0-0.2,0c-2.4,0-4.1,0-5.9,0c-1.8,0-3.6,0-6,0c-0.5,0-1-0.4-1-1l0-18.9
	c0,0,0-0.1,0-0.1l0,0l0-19c0-0.5,0.4-1,1-1c3.1-0.1,5.7,0,8.3,0c2.6,0,5.2,0.1,8.2,0h0c0.5,0,1,0.5,1,1c-0.1,4.7-0.6,9.2-1.9,13h4.4
	c1.4,0,2.6,0.6,3.5,1.5l0.1,0.1c0.9,0.9,1.4,2.1,1.4,3.5l0,5h3c0.6,0,1,0.4,1,1v11.7L38.8,45.3L38.8,45.3z M32.8,44.5h4v-10h-4v1
	V44.5z"/>
</svg>
