<?xml version="1.0" encoding="utf-8"?>
<!-- Generator: Adobe Illustrator 19.1.1, SVG Export Plug-In . SVG Version: 6.00 Build 0)  -->
<svg version="1.1" id="Capa_1" xmlns="http://www.w3.org/2000/svg" xmlns:xlink="http://www.w3.org/1999/xlink" x="0px" y="0px"
	 viewBox="256.7 -0.7 56.7 56.7" style="enable-background:new 256.7 -0.7 56.7 56.7;" xml:space="preserve">
<g>
	<path d="M300.3,7.6c-2-2-4.8-3.2-7.7-3.2c-2.9,0-5.6,1.1-7.7,3.2c-2,2-3.2,4.8-3.2,7.7c0,0.8,0.1,1.6,0.3,2.4l-14.7,18
		c-0.9,1.1-0.9,2.7-0.2,3.8c-1.1,1.6-0.8,3.8,0.8,5.4c2.1,2.1,6,2.6,9.7-1.2c2.2-2.2,5.4-3.4,7.2-1.6c1.3,1.3,1.4,4.1-1.7,7.1
		c-0.4,0.4-0.4,1.1,0,1.5c0.2,0.2,0.5,0.3,0.7,0.3s0.5-0.1,0.7-0.3c4-4,3.7-8.1,1.7-10.1c-1.1-1.1-2.8-1.7-4.6-1.4
		c-1.9,0.2-3.8,1.3-5.5,3c-3,3-5.5,2.5-6.8,1.2c-0.8-0.8-1-1.7-0.7-2.4c0.5,0.3,1.2,0.5,1.8,0.5c0.7,0,1.5-0.2,2.1-0.7l18.2-14.9
		c0.6,0.1,1.2,0.2,1.8,0.2c2.9,0,5.6-1.1,7.7-3.2c2-2,3.2-4.8,3.2-7.7C303.5,12.4,302.4,9.7,300.3,7.6z M271.3,39.2
		c-0.5,0.4-1.2,0.3-1.6-0.1l-0.5-0.5c-0.4-0.4-0.5-1.2-0.1-1.6l13.9-17c0.5,1.1,1.2,2.1,2.1,3c1,1,2.1,1.8,3.4,2.3L271.3,39.2z
		 M298.8,21.5c-1.7,1.7-3.9,2.6-6.2,2.6c-2.3,0-4.5-0.9-6.2-2.6c-1.7-1.7-2.6-3.9-2.6-6.2c0-2.3,0.9-4.5,2.6-6.2
		c1.7-1.7,3.9-2.6,6.2-2.6c2.3,0,4.5,0.9,6.2,2.6c1.7,1.7,2.6,3.9,2.6,6.2C301.4,17.6,300.5,19.8,298.8,21.5z"/>
	<path d="M297.6,10.9c-0.4-0.4-1.1-0.4-1.5,0c-0.4,0.4-0.4,1.1,0,1.5c0.8,0.8,1.3,2,1.3,3.2c0,1.2-0.5,2.4-1.3,3.2
		c-0.4,0.4-0.4,1.1,0,1.5c0.2,0.2,0.5,0.3,0.7,0.3c0.3,0,0.5-0.1,0.7-0.3c1.2-1.2,1.9-2.9,1.9-4.7C299.4,13.8,298.8,12.1,297.6,10.9
		z"/>
</g>
</svg>
