<?xml version="1.0" encoding="utf-8"?>
<!-- Generator: Adobe Illustrator 19.1.1, SVG Export Plug-In . SVG Version: 6.00 Build 0)  -->
<svg version="1.1" id="Capa_1" xmlns="http://www.w3.org/2000/svg" xmlns:xlink="http://www.w3.org/1999/xlink" x="0px" y="0px"
	 viewBox="454.7 -0.7 56.7 56.7" style="enable-background:new 454.7 -0.7 56.7 56.7;" xml:space="preserve">
<g>
	<g>
		<path d="M499.9,37.9c-0.7-1.2-1.7-2-3-2.3c-0.3-0.1-0.6-0.1-1-0.2c0-0.5,0.1-0.9,0.1-1.4c0-0.6,0-1.2-0.1-1.7
			c2.4-0.3,4.2-2.3,4.2-4.6c0-2.6-2.2-4.7-4.9-4.7c-0.3,0-0.5,0-0.8,0.1c0.6-1.3,0.9-2.8,0.9-4.3c0-1-0.1-2-0.4-2.9
			c1.9-0.8,3.2-2.7,3.2-4.8c0-2.9-2.4-5.2-5.4-5.2c-1.8,0-3.5,0.9-4.5,2.3c-1.6-0.7-3.3-1.1-5.1-1.1s-3.5,0.4-5.1,1.1
			c-1-1.4-2.7-2.3-4.5-2.3c-3,0-5.4,2.3-5.4,5.2c0,2.1,1.3,3.9,3.2,4.8c-0.3,0.9-0.4,1.9-0.4,2.9c0,1.5,0.3,3,0.9,4.3
			c-0.3,0-0.5-0.1-0.8-0.1c-2.7,0-4.9,2.1-4.9,4.7c0,2.4,1.8,4.3,4.2,4.6c-0.1,0.6-0.1,1.2-0.1,1.7c0,0.5,0,0.9,0.1,1.4
			c0,0-0.1,0-0.1,0c-0.4,0-0.8,0.1-1.3,0.2c-1.3,0.3-2.3,1.1-3,2.3c-1.2,2.1-1.1,5.2-0.5,7.3c0.7,2.5,3.1,4.3,5.8,4.3
			c0.1,0,0.2,0,0.3,0c0,0,0,0,0,0c0,0,0,0,0,0c0,0,0,0,0,0c2.2-0.1,4.2-1.4,5.1-3.3c1.9,1.2,4.1,1.8,6.3,1.8c2.1,0,4.2-0.6,6.1-1.7
			c0,0.1,0.1,0.1,0.1,0.2c0.8,1.4,2.1,2.4,3.7,2.8c0.5,0.1,1,0.2,1.6,0.2c2.7,0,5.1-1.8,5.8-4.3C501.1,43,501.1,40,499.9,37.9z
			 M470,11.1c0-1.9,1.7-3.5,3.7-3.5c1.5,0,2.8,0.8,3.4,2.1c0.1,0.2,0.3,0.4,0.5,0.4c0.2,0.1,0.5,0.1,0.7-0.1c1.5-0.8,3.3-1.2,5-1.2
			c1.7,0,3.5,0.4,5,1.2c0.2,0.1,0.4,0.1,0.7,0.1c0.2-0.1,0.4-0.2,0.5-0.4c0.6-1.3,1.9-2.1,3.4-2.1c2,0,3.7,1.6,3.7,3.5
			c0,1.4-0.8,2.6-2.1,3.1c-0.2-0.5-0.4-0.9-0.7-1.3c-0.2-0.4-0.8-0.5-1.2-0.3c-0.4,0.2-0.5,0.8-0.3,1.2c0.3,0.6,0.6,1.2,0.9,1.8
			c0,0,0,0,0,0c0.3,1,0.5,2,0.5,3.1c0,5.2-4.2,9.5-9.5,9.9v-6.3c1.2-0.4,2.1-1.7,2.1-2.8c0-0.6-0.3-2.1-3-2.1s-3,1.4-3,2.1
			c0,1.1,0.9,2.4,2.1,2.8v6.3c-5.3-0.4-9.5-4.7-9.5-9.9c0-1.1,0.2-2.1,0.5-3.2c0.1-0.2,0.1-0.5-0.1-0.7c-0.1-0.2-0.3-0.4-0.5-0.4
			C471.1,14.1,470,12.7,470,11.1z M483.2,35.2c-0.5,0-0.9,0.4-0.9,0.9v2.6c-2.9-0.4-5.1-2.9-5.1-5.9c0-1.2,0.4-2.4,1.1-3.4
			c1.5,0.6,3.2,1,4.9,1c1.7,0,3.4-0.4,4.9-1c0.7,1,1.1,2.2,1.1,3.4c0,3-2.2,5.5-5.1,5.9V36C484.1,35.6,483.7,35.2,483.2,35.2z
			 M481.9,19.4c0-0.1,0-0.1,0.1-0.2c0.1-0.1,0.4-0.2,1.1-0.2c0.7,0,1,0.1,1.1,0.2c0.1,0.1,0.1,0.1,0.1,0.2c0,0.5-0.6,1.3-1.3,1.3
			C482.5,20.7,481.9,19.9,481.9,19.4z M475.2,45.7c-0.6,1-1.5,1.7-2.7,2c-0.3,0.1-0.6,0.1-0.8,0.1c0,0,0,0,0,0c-0.1,0-0.2,0-0.3,0
			c-2,0-3.7-1.3-4.2-3.1c-0.5-1.7-0.6-4.3,0.4-6c0.5-0.8,1.1-1.3,2-1.5c0.3-0.1,0.6-0.1,0.8-0.1c0.3,0,0.6,0,0.8,0.1c0,0,0,0,0,0
			c2.2,0.6,3.8,3.5,4.3,5.4C475.8,43.7,475.7,44.7,475.2,45.7z M488.8,42.1c-0.2,0.8-0.3,1.7-0.1,2.5c-1.7,1.1-3.6,1.6-5.5,1.6
			c-2.1,0-4.1-0.6-5.9-1.8c0.1-0.7,0-1.5-0.2-2.2c-0.6-2.2-2.4-5.3-5-6.4c-0.1-0.6-0.1-1.2-0.1-1.8c0-0.8,0.1-1.6,0.2-2.4
			c0-0.3,0-0.5-0.2-0.7c-0.2-0.2-0.4-0.3-0.7-0.3c-0.1,0-0.2,0-0.2,0c-1.7,0-3.2-1.3-3.2-3s1.4-3,3.2-3c0.8,0,1.6,0.3,2.2,0.9
			c0.9,1.2,2.1,2.2,3.4,3c-0.8,1.2-1.2,2.7-1.2,4.2c0,4.2,3.4,7.7,7.7,7.7c4.2,0,7.7-3.4,7.7-7.7c0-1.5-0.4-2.9-1.2-4.2
			c1.3-0.8,2.5-1.8,3.4-3c0.6-0.6,1.4-0.9,2.2-0.9c1.7,0,3.2,1.3,3.2,3s-1.4,3-3.2,3c-0.1,0-0.2,0-0.2,0c-0.3,0-0.5,0.1-0.7,0.3
			c-0.2,0.2-0.3,0.5-0.2,0.7c0.1,0.8,0.2,1.6,0.2,2.4c0,0.5,0,1.1-0.1,1.6C491.4,36.5,489.5,39.8,488.8,42.1z M498.8,44.7
			c-0.5,1.8-2.2,3.1-4.2,3.1c-0.4,0-0.8,0-1.1-0.1c-1.2-0.3-2.1-1-2.7-2c-0.5-0.9-0.7-2-0.4-3c0.6-2,2.3-5,4.7-5.4c0,0,0,0,0,0
			c0.2,0,0.3,0,0.5,0c0.3,0,0.6,0,0.8,0.1c0.9,0.2,1.5,0.7,2,1.5C499.4,40.4,499.3,43,498.8,44.7z"/>
	</g>
</g>
<g>
	<g>
		<path d="M488.6,15.5c-0.8,0-1.4,0.6-1.4,1.4c0,0.8,0.6,1.4,1.4,1.4s1.4-0.6,1.4-1.4C490,16.1,489.3,15.5,488.6,15.5z"/>
	</g>
</g>
<g>
	<g>
		<path d="M477.8,15.5c-0.8,0-1.4,0.6-1.4,1.4c0,0.8,0.6,1.4,1.4,1.4c0.8,0,1.4-0.6,1.4-1.4C479.3,16.1,478.6,15.5,477.8,15.5z"/>
	</g>
</g>
<g>
	<g>
		<path d="M491.9,10.7L491.9,10.7c-0.4-0.3-0.9-0.3-1.2,0c-0.3,0.3-0.3,0.9,0,1.2c0,0,0,0,0,0c0.2,0.2,0.4,0.2,0.6,0.2
			c0.2,0,0.4-0.1,0.6-0.2C492.3,11.6,492.3,11,491.9,10.7z"/>
	</g>
</g>
<g>
	<g>
		<path d="M483.2,32.7c-0.5,0-0.9,0.4-0.9,0.9v0c0,0.5,0.4,0.9,0.9,0.9s0.9-0.4,0.9-0.9v0C484.1,33.1,483.7,32.7,483.2,32.7z"/>
	</g>
</g>
</svg>
