<?xml version="1.0" encoding="utf-8"?>
<!-- Generator: Adobe Illustrator 19.1.1, SVG Export Plug-In . SVG Version: 6.00 Build 0)  -->
<svg version="1.1" id="Слой_1" xmlns="http://www.w3.org/2000/svg" xmlns:xlink="http://www.w3.org/1999/xlink" x="0px" y="0px"
	 viewBox="0 0 56.7 56.7" style="enable-background:new 0 0 56.7 56.7;" xml:space="preserve">
<style type="text/css">
	.st0{fill-rule:evenodd;clip-rule:evenodd;}
</style>
<path class="st0" d="M46,36.3L46,36.3L46,36.3L46,36.3l0.1,0.1l0,0l0,0l0,0l0,0l0,0.1l0,0l0,0v0c0,0,0,0.1,0,0.1l0,0.1l0,0.1
	c0,0,0,0.1,0,0.1v0l0,0l0,0l0,0.1l0,0l0,0l0,0l0,0l0,0l0,0l0,0.1v0c0,0.1-0.1,0.1-0.1,0.2l-6,6c-0.4,0.4-1,0.4-1.4,0
	c-0.4-0.4-0.4-1,0-1.4l4.3-4.3H11.1c-0.8,0-1.6-0.3-2.1-0.9c-0.5-0.5-0.9-1.3-0.9-2.1v-12v-4v-4c0-0.8,0.3-1.6,0.9-2.1
	c0.5-0.5,1.3-0.9,2.1-0.9h34c0.8,0,1.6,0.3,2.1,0.9l0,0c0.5,0.5,0.9,1.3,0.9,2.1v4v4v8c0,0.6-0.4,1-1,1s-1-0.4-1-1v-7h-36v11
	c0,0.3,0.1,0.5,0.3,0.7c0.2,0.2,0.4,0.3,0.7,0.3h31.6l-4.3-4.3c-0.4-0.4-0.4-1,0-1.4c0.4-0.4,1-0.4,1.4,0l6,6
	C45.9,36.2,45.9,36.2,46,36.3L46,36.3z M13.1,29.8h6c0.6,0,1-0.4,1-1c0-0.6-0.4-1-1-1h-6c-0.6,0-1,0.4-1,1
	C12.1,29.4,12.6,29.8,13.1,29.8L13.1,29.8z M46.1,21.8v-2h-36v2H46.1L46.1,21.8z M46.1,17.8v-3c0-0.3-0.1-0.5-0.3-0.7
	c-0.2-0.2-0.4-0.3-0.7-0.3h-34c-0.3,0-0.5,0.1-0.7,0.3l0,0c-0.2,0.2-0.3,0.4-0.3,0.7v3H46.1z"/>
</svg>
