<?xml version="1.0" encoding="utf-8"?>
<!-- Generator: Adobe Illustrator 19.1.1, SVG Export Plug-In . SVG Version: 6.00 Build 0)  -->
<svg version="1.1" id="Capa_1" xmlns="http://www.w3.org/2000/svg" xmlns:xlink="http://www.w3.org/1999/xlink" x="0px" y="0px"
	 viewBox="256.7 -0.7 56.7 56.7" style="enable-background:new 256.7 -0.7 56.7 56.7;" xml:space="preserve">
<g>
	<path d="M282.1,26.8c-1,0-2,0.4-2.7,1.1c-0.7,0.7-1.1,1.7-1.1,2.7c0,1,0.4,2,1.1,2.7c0.7,0.7,1.7,1.1,2.7,1.1c1,0,2-0.4,2.7-1.1
		c0.7-0.7,1.1-1.7,1.1-2.7c0-1-0.4-2-1.1-2.7C284.1,27.2,283.1,26.8,282.1,26.8z M283.5,31.9c-0.4,0.4-0.8,0.5-1.3,0.5
		c-0.5,0-1-0.2-1.3-0.5c-0.4-0.4-0.5-0.8-0.5-1.3c0-0.5,0.2-1,0.5-1.3c0.4-0.4,0.8-0.5,1.3-0.5c0.5,0,1,0.2,1.3,0.5
		c0.4,0.4,0.5,0.8,0.5,1.3C284,31.1,283.8,31.5,283.5,31.9z"/>
	<path d="M272.4,35.1c-0.4-0.4-1-0.4-1.4,0c-0.4,0.4-0.4,1,0,1.4l5.2,5.2c0.2,0.2,0.4,0.3,0.7,0.3c0.2,0,0.5-0.1,0.7-0.3
		c0.4-0.4,0.4-1,0-1.4L272.4,35.1z"/>
	<path d="M305.4,12.9l0.6-0.5c0,0,0,0,0.1-0.1c0.7-0.7,0.7-1.8,0-2.5l-3.2-3.2c-0.3-0.3-0.8-0.5-1.3-0.5c-0.5,0-0.9,0.2-1.3,0.5
		c0,0,0,0-0.1,0.1l-0.5,0.6l-0.4-0.4c-0.4-0.4-1-0.4-1.4,0c-0.4,0.4-0.4,1,0,1.4l0.5,0.5l-0.4,0.4l-0.5-0.5c-0.4-0.4-1-0.4-1.4,0
		c-0.4,0.4-0.4,1,0,1.4l0.6,0.6l-0.4,0.5c-0.3,0.3-0.5,0.7-0.5,1.1c0,0.2,0,0.4,0,0.5l-9.5,9.5c-1.3-0.8-2.8-1.2-4.2-1.2
		c-0.1,0-0.1,0-0.2,0c-2,0.1-3.9,0.9-5.4,2.4c-0.7,0.7-1.3,1.7-1.6,2.8c-0.2,0.6-0.8,1.1-1.5,1.1c-2.1,0-5.1,0.6-7.3,2.7
		c-2.2,2.2-3.2,4.9-3,7.8c0.2,2.7,1.5,5.3,3.7,7.5l0,0c0,0,0,0,0,0c0,0,0,0,0,0c0,0,0,0,0,0c0,0,0,0,0,0c0,0,0,0,0,0c0,0,0,0,0,0
		c0,0,0,0,0,0c0,0,0,0,0,0c2.2,2.2,4.8,3.5,7.5,3.7c0.3,0,0.6,0,0.8,0c2.6,0,5-1,7-3c2.1-2.1,2.7-5.1,2.7-7.3c0-0.7,0.5-1.3,1.1-1.5
		c1.1-0.3,2.1-0.9,2.8-1.6c1.5-1.5,2.4-3.4,2.4-5.4c0-1.5-0.4-3-1.2-4.4l9.5-9.5c0.1,0,0.2,0,0.3,0c0.5,0,0.9-0.2,1.3-0.5l0.5-0.4
		l0.6,0.6c0.2,0.2,0.4,0.3,0.7,0.3c0.2,0,0.5-0.1,0.7-0.3c0.4-0.4,0.4-1,0-1.4l-0.5-0.5l0.4-0.4l0.5,0.5c0.2,0.2,0.4,0.3,0.7,0.3
		c0.2,0,0.5-0.1,0.7-0.3c0.4-0.4,0.4-1,0-1.4L305.4,12.9z M301.6,8.1l2.9,2.9l-4.3,3.5l-2.2-2.2L301.6,8.1z M289.7,30.4
		c0,1.5-0.7,2.9-1.9,4.1c-0.5,0.5-1.2,0.9-2,1.1c-1.4,0.4-2.5,1.8-2.5,3.3c0,1.8-0.4,4.2-2.1,5.9c-1.8,1.8-4,2.6-6.3,2.4
		c-2.2-0.2-4.5-1.3-6.3-3.2c-1.9-1.9-3-4.1-3.2-6.3c-0.2-2.3,0.6-4.5,2.4-6.3c1.7-1.7,4.2-2.1,5.9-2.1c1.5,0,2.9-1.1,3.3-2.5
		c0.2-0.8,0.6-1.5,1.1-2c1.2-1.2,2.6-1.8,4.1-1.9c0,0,0.1,0,0.1,0c1.7,0,3.5,0.8,4.9,2.3C289.5,27.5,289.7,29.6,289.7,30.4z
		 M288.7,24c-0.2-0.2-0.4-0.3-0.5-0.5l9.1-9.1l1.1,1.1l-9.1,9.1C289.1,24.3,288.9,24.1,288.7,24z"/>
</g>
</svg>
