<?xml version="1.0" encoding="utf-8"?>
<!-- Generator: Adobe Illustrator 19.1.1, SVG Export Plug-In . SVG Version: 6.00 Build 0)  -->
<svg version="1.1" id="Capa_1" xmlns="http://www.w3.org/2000/svg" xmlns:xlink="http://www.w3.org/1999/xlink" x="0px" y="0px"
	 viewBox="454.7 -0.7 56.7 56.7" style="enable-background:new 454.7 -0.7 56.7 56.7;" xml:space="preserve">
<g>
	<g>
		<path d="M507.1,8.4L507.1,8.4c0-0.3-0.2-0.6-0.5-0.8c-0.3-0.2-0.6-0.2-0.9,0c-1.8,1-3.9,4.9-5.1,9.3c-1.6-2.6-3.8-4.8-6.4-6.5
			c-3.3-2.1-7.2-3.3-11.1-3.3c-3.1,0-6.3,0.7-9.1,2.1c-2.1,1-3.9,2.4-5.6,4V8.4c0-0.5-0.4-0.9-0.9-0.9s-0.9,0.4-0.9,0.9V15h-1.9V8.4
			c0-0.5-0.4-0.9-0.9-0.9c-0.5,0-0.9,0.4-0.9,0.9V15h-1.9V8.4c0-0.5-0.4-0.9-0.9-0.9c-0.5,0-0.9,0.4-0.9,0.9v7.5
			c0,2.2,1.6,4.1,3.7,4.6c-0.2,1.7-0.5,5.3-0.9,10.8c-0.4,4.6-0.9,11.3-0.9,11.9c0,1.6,1.3,2.8,2.8,2.8c1.6,0,2.8-1.3,2.8-2.8
			c0-0.3-0.1-1.7-0.2-3.6c3.8,5.4,10,8.6,16.8,8.6c4.6,0,9.2-1.6,12.8-4.5c1.5-1.2,2.8-2.6,3.9-4.2c-0.1,0.9-0.2,1.8-0.2,2.6
			c0,2.1,1.7,3.8,3.8,3.8c2.1,0,3.8-1.7,3.8-3.8l0-11.2c0,0,0-0.1,0-0.1V8.4z M461,16.9h5.3c-0.4,1.1-1.4,1.9-2.7,1.9
			C462.4,18.8,461.4,18,461,16.9z M463.6,44.1c-0.5,0-0.9-0.4-0.9-0.9c0-0.4,0.5-6.8,0.9-12.8c0.5,6,0.9,12.3,0.9,12.8
			C464.6,43.7,464.1,44.1,463.6,44.1z M501.3,31.9c-2,8.6-9.5,14.5-18.3,14.5c-7.4,0-14.1-4.4-17.1-11.1c-0.1-1.4-0.2-2.8-0.3-4
			c-0.4-5.5-0.7-9.1-0.9-10.8c2.1-0.5,3.6-2.3,3.7-4.5c3.5-4.4,9-7.1,14.7-7.1c7.2,0,13.8,4.2,16.9,10.6c-0.5,2.7-0.6,5.3,0,7.5
			c0.3,1.2,0.8,2.2,1.6,3C501.4,30.6,501.3,31.2,501.3,31.9z M503.3,44.1c-1,0-1.9-0.8-1.9-1.9c0-1.8,0.5-4,0.9-6.1
			c0.3-1.6,0.7-3.3,0.9-4.8c0.6,0.3,1.3,0.4,2,0.5l0,10.4C505.2,43.3,504.4,44.1,503.3,44.1z M505.2,30c-1.8-0.3-3-1.4-3.5-3.4
			c-0.7-2.5-0.3-6.4,1-10.3c0.8-2.3,1.7-4.2,2.5-5.5V30z"/>
	</g>
</g>
<g>
	<g>
		<path d="M480.2,20.3c-2.1,0-3.9,1.7-3.9,3.9c0,2.1,1.7,3.9,3.9,3.9c2.1,0,3.9-1.7,3.9-3.9C484.1,22.1,482.4,20.3,480.2,20.3z
			 M480.2,26.2c-1.1,0-2-0.9-2-2c0-1.1,0.9-2,2-2c1.1,0,2,0.9,2,2C482.2,25.3,481.3,26.2,480.2,26.2z"/>
	</g>
</g>
<g>
	<g>
		<path d="M489.9,20.8c-0.3-0.2-0.5-0.3-0.7-0.5c-3.2-1.9-3.2-1.9-5.1-5.2c-0.1-0.2-0.3-0.4-0.4-0.7c-0.3-0.6-0.8-1-1.4-1.4
			c-0.6-0.4-1.3-0.6-2.1-0.6c-1.4,0-2.7,0.7-3.4,1.9c-0.2,0.3-0.3,0.5-0.5,0.7c-1.9,3.2-1.9,3.2-5.2,5.1c-0.2,0.1-0.4,0.3-0.7,0.4
			c-0.6,0.3-1,0.8-1.4,1.4c-1.1,1.9-0.5,4.3,1.3,5.5c0.3,0.2,0.5,0.3,0.7,0.5c3.2,1.9,3.2,1.9,5.1,5.2c0.1,0.2,0.3,0.4,0.4,0.7
			c0.3,0.6,0.8,1,1.4,1.4c0.6,0.4,1.3,0.6,2.1,0.6c1.4,0,2.7-0.7,3.4-1.9c0.2-0.3,0.3-0.5,0.5-0.7c1.9-3.2,1.9-3.2,5.2-5.1
			c0.2-0.1,0.4-0.3,0.7-0.4c0.6-0.3,1-0.8,1.4-1.4C492.4,24.4,491.8,22,489.9,20.8z M489.7,25.3c-0.2,0.3-0.4,0.5-0.7,0.7
			c0,0,0,0,0,0c-0.2,0.1-0.5,0.3-0.7,0.4c-3.5,2.2-3.7,2.3-5.8,5.8c-0.1,0.2-0.3,0.5-0.5,0.7c-0.4,0.6-1.1,1-1.8,1
			c-0.4,0-0.8-0.1-1.1-0.3c-0.3-0.2-0.5-0.4-0.7-0.7c0,0,0,0,0,0c-0.1-0.2-0.3-0.5-0.4-0.7c-2.2-3.5-2.3-3.7-5.8-5.8
			c-0.2-0.1-0.5-0.3-0.7-0.5c-1-0.6-1.3-1.9-0.7-2.9c0.2-0.3,0.4-0.5,0.7-0.7c0,0,0,0,0,0c0.2-0.1,0.5-0.3,0.7-0.4
			c3.5-2.2,3.7-2.3,5.8-5.8c0.1-0.2,0.3-0.5,0.5-0.7c0.4-0.6,1.1-1,1.8-1c0.4,0,0.8,0.1,1.1,0.3c0.3,0.2,0.5,0.4,0.7,0.7
			c0,0,0,0,0,0c0.1,0.2,0.3,0.5,0.4,0.7c2.2,3.5,2.3,3.7,5.8,5.8c0.2,0.1,0.5,0.3,0.7,0.5C490,23,490.3,24.3,489.7,25.3z"/>
	</g>
</g>
<g>
	<g>
		<path d="M495.9,33.4l1.9-3.3c0.4-0.7,0.5-1.4,0.3-2.1c-0.2-0.7-0.7-1.3-1.3-1.7c0,0,0,0,0,0c-0.4-0.2-0.9-0.4-1.4-0.4
			c-1,0-1.9,0.5-2.4,1.4l-0.9,1.6c0,0,0,0,0,0l-2.8,4.9c-0.3,0.4-0.4,0.9-0.4,1.4l-4.1,1.1c-1.6,0.4-2.5,2-2.1,3.6c0,0,0,0,0,0
			c0.3,1.3,1.5,2.2,2.9,2.2c0.3,0,0.5,0,0.8-0.1l7.8-2.1c1.6-0.4,2.5-2,2.1-3.6c0,0,0,0,0,0c-0.2-0.6-0.5-1.1-1-1.5L495.9,33.4
			C495.9,33.4,495.9,33.4,495.9,33.4z M492.9,31.1l1.1,1.8l-0.7,1.2c0,0,0,0-0.1,0c0,0,0,0,0,0c0,0,0,0-0.1,0c0,0-0.1,0-0.1,0
			c0,0-0.1,0-0.1,0c0,0-0.1,0-0.1,0c0,0-0.1,0-0.1,0c0,0,0,0-0.1,0c-0.1,0-0.1,0-0.2,0l-0.4,0.1l-1.2,0.3L492.9,31.1z M485.7,40.2
			c-0.1,0-0.2,0-0.3,0c-0.5,0-0.9-0.3-1-0.8c0,0,0,0,0,0c-0.2-0.6,0.2-1.2,0.8-1.3l2-0.5l2.3,1.6L485.7,40.2z M493.5,38.1l-1.6,0.4
			l-2.3-1.6L493,36c0,0,0.1,0,0.1,0c0,0,0,0,0,0c0,0,0.1,0,0.1,0c0,0,0,0,0,0c0,0,0,0,0.1,0c0,0,0,0,0,0c0,0,0,0,0.1,0
			c0,0,0.1,0,0.1,0c0,0,0,0,0,0c0,0,0,0,0.1,0c0.3,0.1,0.6,0.4,0.7,0.7c0,0,0,0,0,0C494.4,37.3,494.1,37.9,493.5,38.1z M495.1,31.1
			l-1.1-1.8l0.6-1.1c0.2-0.3,0.5-0.5,0.8-0.5c0.2,0,0.3,0,0.5,0.1c0,0,0,0,0,0c0.2,0.1,0.4,0.3,0.4,0.6c0.1,0.2,0,0.5-0.1,0.7
			L495.1,31.1z"/>
	</g>
</g>
</svg>
