<?xml version="1.0" encoding="utf-8"?>
<!-- Generator: Adobe Illustrator 19.1.1, SVG Export Plug-In . SVG Version: 6.00 Build 0)  -->
<svg version="1.1" id="Слой_1" xmlns="http://www.w3.org/2000/svg" xmlns:xlink="http://www.w3.org/1999/xlink" x="0px" y="0px"
	 viewBox="0 0 56.7 56.7" style="enable-background:new 0 0 56.7 56.7;" xml:space="preserve">
<style type="text/css">
	.st0{fill-rule:evenodd;clip-rule:evenodd;}
</style>
<path class="st0" d="M17.7,46.7c0.8,0,1.6-0.3,2.1-0.9c0.5-0.5,0.8-1.2,0.9-1.9c0-0.1,0-0.1,0-0.2c0-0.1,0-0.1,0-0.2
	c0-0.8-0.4-1.4-0.9-1.9c-0.5-0.5-1.3-0.9-2.1-0.9c-0.8,0-1.6,0.3-2.1,0.9c-0.5,0.5-0.9,1.3-0.9,2.1c0,0.8,0.3,1.6,0.9,2.1l0,0
	C16.2,46.3,16.9,46.7,17.7,46.7L17.7,46.7z M15.2,34.5L15.2,34.5L15.2,34.5L15.2,34.5l0.1,0.1l0,0l0,0l0,0l0,0l0.1,0l0,0l0,0h0
	c0,0,0.1,0,0.1,0l0.1,0h10h11.9c1.3,0.2,2.2,0.5,3.2,0.7l0.3,0.1c0.2,0.2,0.4,0.2,0.7,0.2c0.1,0,0.2,0,0.2,0
	c0.6,0.1,1.3,0.3,2.3,0.5c0.7,0.1,1.4,0.5,1.8,1c0.4,0.5,0.7,1.2,0.7,1.9v2.6c0,0.3-0.1,0.5-0.3,0.7c-0.2,0.2-0.4,0.3-0.7,0.3h-1.1
	c-0.2-1-0.7-1.9-1.4-2.5c-0.9-0.9-2.2-1.5-3.5-1.5c-1.4,0-2.6,0.6-3.5,1.5c-0.7,0.7-1.2,1.6-1.4,2.5H22.6c-0.2-1-0.7-1.9-1.4-2.5
	c-0.9-0.9-2.2-1.5-3.5-1.5c-1.4,0-2.6,0.6-3.5,1.5c-0.7,0.7-1.2,1.6-1.4,2.5h-1.1c-0.3,0-0.5-0.1-0.7-0.3c-0.2-0.2-0.3-0.4-0.3-0.7
	v-6.2c0-0.4,0.1-0.9,0.2-1.2c0.2-0.4,0.4-0.7,0.7-1l3.5-3.2c0.4-0.4,0.8-0.7,1.3-1c0.4-0.2,0.8-0.3,1.2-0.3h7v4h-6.6l0.3-0.3
	c0.4-0.4,0.4-1,0-1.4c-0.4-0.4-1-0.4-1.4,0l-2,2C15,33,14.9,33,14.9,33.1v0l0,0.1l0,0l0,0l0,0l0,0l0,0l0,0l0,0.1l0,0l0,0v0
	c0,0,0,0.1,0,0.1l0,0.1l0,0.1c0,0,0,0.1,0,0.1v0l0,0l0,0l0,0.1l0,0l0,0l0,0l0,0l0,0l0,0l0,0.1v0c0,0.1,0.1,0.1,0.1,0.2
	C15.1,34.4,15.1,34.5,15.2,34.5L15.2,34.5z M42.8,26.6v7.1c0.5,0.1,1.1,0.2,1.8,0.4c1.2,0.2,2.3,0.8,3,1.7c0.7,0.9,1.2,2,1.2,3.2
	v2.6c0,0.8-0.3,1.6-0.9,2.1l0,0c-0.5,0.5-1.3,0.9-2.1,0.9h-1.1c-0.2,1-0.7,1.9-1.4,2.5c-0.9,0.9-2.2,1.5-3.5,1.5
	c-1.3,0-2.6-0.5-3.5-1.4l-0.1-0.1c-0.7-0.7-1.2-1.6-1.4-2.5H22.6c-0.2,1-0.7,1.9-1.4,2.5c-0.9,0.9-2.2,1.5-3.5,1.5
	c-1.3,0-2.6-0.5-3.5-1.4l-0.1-0.1c-0.7-0.7-1.2-1.6-1.4-2.5h-1.1c-0.8,0-1.6-0.3-2.1-0.9l0,0c-0.5-0.5-0.9-1.3-0.9-2.1v-6.2
	c0-0.7,0.1-1.4,0.4-2c0.3-0.6,0.7-1.2,1.2-1.7l3.5-3.2c0.5-0.5,1.1-0.9,1.7-1.3c0.7-0.4,1.4-0.6,2.2-0.6h8h2.8c0.5,0,1,0.1,1.5,0.2
	c0.5,0.2,1,0.4,1.4,0.7c0.8,0.6,1.6,1.2,2.5,2c1.3,1,2.6,2.1,4.1,3.1c1.1,0.2,1.9,0.4,2.6,0.6v-6.6h-5c-0.6,0-1-0.4-1-1v-16
	c0-0.6,0.4-1,1-1h12c0.6,0,1,0.4,1,1v16c0,0.6-0.4,1-1,1H42.8L42.8,26.6z M46.8,10.6h-10v14h5h5V10.6L46.8,10.6z M40.8,21.6v-3h3
	c0.6,0,1-0.4,1-1v-4c0-0.6-0.4-1-1-1h-4c-0.6,0-1,0.4-1,1v8c0,0.6,0.4,1,1,1S40.8,22.2,40.8,21.6L40.8,21.6z M40.8,14.6v2h2v-2H40.8
	L40.8,14.6z M27.7,38.7h2c0.6,0,1-0.4,1-1c0-0.6-0.4-1-1-1h-2c-0.6,0-1,0.4-1,1C26.7,38.2,27.2,38.7,27.7,38.7L27.7,38.7z
	 M26.7,28.6v4h7.9c-0.7-0.5-1.3-1-1.9-1.5c-0.9-0.7-1.7-1.3-2.5-1.9c-0.3-0.2-0.5-0.3-0.8-0.4c-0.3-0.1-0.6-0.1-0.9-0.1H26.7
	L26.7,28.6z M39.8,46.7c0.8,0,1.6-0.3,2.1-0.9c0.5-0.5,0.9-1.3,0.9-2.1c0-0.8-0.3-1.6-0.9-2.1c-0.5-0.5-1.3-0.9-2.1-0.9
	c-0.8,0-1.6,0.3-2.1,0.9c-0.5,0.5-0.9,1.3-0.9,2.1c0,0.8,0.3,1.6,0.9,2.1l0,0C38.2,46.3,38.9,46.7,39.8,46.7z"/>
</svg>
