<?xml version="1.0" encoding="utf-8"?>
<!-- Generator: Adobe Illustrator 19.1.1, SVG Export Plug-In . SVG Version: 6.00 Build 0)  -->
<svg version="1.1" id="Capa_1" xmlns="http://www.w3.org/2000/svg" xmlns:xlink="http://www.w3.org/1999/xlink" x="0px" y="0px"
	 viewBox="372.5 -0.5 56.7 56.7" style="enable-background:new 372.5 -0.5 56.7 56.7;" xml:space="preserve">
<g>
	<g>
		<g>
			<path d="M398.2,18.4L398.2,18.4c-0.5,0-1,0.2-1.3,0.5l0,0c0,0,0,0,0,0c-0.8,0.8-0.8,2,0,2.8c0,0,0,0,0,0c0.8,0.8,2,0.8,2.8,0
				c0.4-0.4,0.6-0.9,0.6-1.4C400.1,19.2,399.2,18.4,398.2,18.4z M398.6,20.7c-0.2,0.2-0.6,0.2-0.8,0c-0.2-0.2-0.2-0.6,0-0.8l0,0
				c0.2-0.2,0.6-0.2,0.8,0h0c0,0,0,0,0,0C398.8,20.2,398.8,20.5,398.6,20.7z"/>
			<path d="M389.5,20.4c-0.4-0.4-0.9-0.6-1.4-0.6l0,0c-0.5,0-1,0.2-1.3,0.5c-0.8,0.7-0.8,2-0.1,2.8l0,0c0,0,0,0,0,0
				c0.8,0.8,2,0.8,2.8,0c0,0,0,0,0,0C390.3,22.4,390.3,21.2,389.5,20.4z M388.6,22.2C388.6,22.2,388.6,22.2,388.6,22.2
				c-0.2,0.2-0.6,0.2-0.8,0l0,0c-0.1-0.2-0.1-0.5,0-0.7c0.2-0.2,0.5-0.3,0.8-0.1l0,0c0,0,0,0,0,0C388.8,21.6,388.8,22,388.6,22.2z"
				/>
			<path d="M389.6,32.3c-0.4-0.4-1-0.7-1.6-0.7c-0.6,0-1.1,0.2-1.6,0.6l0,0c-0.9,0.9-0.9,2.3,0,3.2c0.9,0.9,2.3,0.9,3.2,0l0,0
				C390.5,34.6,390.5,33.2,389.6,32.3z M388.7,34.5L388.7,34.5c-0.4,0.4-0.9,0.3-1.3,0c-0.4-0.4-0.4-0.9,0-1.3l0,0
				c0.4-0.3,0.9-0.3,1.2,0c0,0,0,0,0,0C389,33.6,389,34.2,388.7,34.5z"/>
			<path d="M396.5,12.7L396.5,12.7c-0.5-0.5-1-0.7-1.7-0.7l0,0c-0.6,0-1.2,0.2-1.6,0.7c-0.9,0.9-0.9,2.3,0,3.2
				c0.9,0.9,2.3,0.9,3.2,0C397.3,15,397.3,13.6,396.5,12.7z M395.4,14.9c-0.4,0.4-0.9,0.4-1.3,0c-0.3-0.4-0.3-0.9,0-1.3
				c0.4-0.4,0.9-0.4,1.3,0l0,0C395.8,14,395.8,14.6,395.4,14.9z"/>
			<path d="M412.6,34.8c0.7,0.8,2,0.8,2.8,0.1l0,0c0.4-0.4,0.6-0.9,0.6-1.4c0-1.1-0.9-2-2-2v0c-0.5,0-1,0.2-1.3,0.5
				C411.9,32.8,411.8,34.1,412.6,34.8z M413.6,33.1c0.2-0.2,0.6-0.2,0.8,0v0c0,0,0,0,0,0c0.2,0.2,0.2,0.6,0,0.8l0,0
				c-0.2,0.2-0.6,0.2-0.8,0C413.4,33.7,413.4,33.3,413.6,33.1z"/>
			<path d="M406.8,37.5L406.8,37.5c0.4-0.4,0.6-0.9,0.6-1.4c0-1.1-0.9-2-2-2c-0.5,0-1,0.2-1.3,0.5l0,0c0,0,0,0,0,0
				c-0.8,0.8-0.8,2,0,2.8C404.9,38.2,406.1,38.2,406.8,37.5z M405.1,35.7L405.1,35.7c0.2-0.2,0.6-0.2,0.8,0c0,0,0,0,0,0
				c0.2,0.2,0.2,0.6,0,0.8l0,0c-0.2,0.2-0.6,0.2-0.8,0c0,0,0,0,0,0C404.9,36.2,404.9,35.9,405.1,35.7z"/>
			<path d="M403.7,43.3c0.8,0.8,2,0.8,2.8,0c0,0,0,0,0,0c0.8-0.8,0.8-2,0-2.8c-0.4-0.4-0.9-0.6-1.4-0.6c-0.5,0-1,0.2-1.3,0.5l0,0
				c0,0,0,0,0,0C403,41.3,403,42.5,403.7,43.3C403.7,43.3,403.7,43.3,403.7,43.3z M404.7,41.5L404.7,41.5c0.2-0.2,0.6-0.2,0.8,0h0
				c0,0,0,0,0,0c0.2,0.2,0.2,0.6,0,0.8c-0.2,0.2-0.6,0.2-0.8,0C404.5,42.1,404.5,41.7,404.7,41.5z"/>
			<path d="M395.2,39.2c0.9,0.9,2.3,0.9,3.2,0c0.9-0.9,0.9-2.3,0-3.2l0,0c-0.4-0.4-1-0.7-1.6-0.7v0c-0.6,0-1.2,0.2-1.6,0.7
				C394.3,36.9,394.3,38.3,395.2,39.2z M396.2,37c0.4-0.4,0.9-0.4,1.3,0l0,0c0.3,0.4,0.3,0.9,0,1.2c-0.4,0.4-0.9,0.4-1.3,0
				C395.8,37.9,395.8,37.3,396.2,37z"/>
			<path d="M414.8,14.3c-7.5-7.4-19.5-7.4-27,0c-7.4,7.5-7.4,19.5,0,27c7.5,7.4,19.5,7.4,27,0C422.3,33.9,422.3,21.8,414.8,14.3z
				 M400.6,10.2v16l-11.3-11.3C392.4,12,396.4,10.3,400.6,10.2z M388.4,15.9l11.3,11.3h-16C383.8,22.9,385.5,18.9,388.4,15.9z
				 M388.4,39.9c-2.9-3.1-4.5-7.1-4.7-11.3h16L388.4,39.9L388.4,39.9z M400.7,45.5c-4.2-0.2-8.2-1.8-11.3-4.7l11.3-11.3V45.5z
				 M414.3,15.8c2.9,3.1,4.5,7.1,4.7,11.3h-16L414.3,15.8L414.3,15.8z M402,10.2c4.2,0.2,8.2,1.8,11.3,4.7L402,26.2V10.2z
				 M413.4,40.8c-3.1,2.9-7.1,4.5-11.3,4.7v-16L413.4,40.8L413.4,40.8z M414.3,39.8L403,28.5h16C418.8,32.8,417.2,36.8,414.3,39.8z"
				/>
			<path d="M401.3,6.2c-5.8,0-11.3,2.3-15.3,6.3c-4.1,4.1-6.4,9.6-6.4,15.3c0,12,9.7,21.7,21.7,21.7c12,0,21.7-9.7,21.7-21.7
				C423,15.9,413.3,6.2,401.3,6.2z M415.7,42.2c-7.9,7.9-20.8,7.9-28.7,0s-7.9-20.8,0-28.7c7.9-7.9,20.8-7.9,28.7,0l0,0
				c3.8,3.8,5.9,9,5.9,14.3C421.6,33.2,419.5,38.4,415.7,42.2z"/>
			<path d="M406.5,13.8C406.5,13.8,406.5,13.8,406.5,13.8C406.5,13.8,406.5,13.8,406.5,13.8L406.5,13.8z"/>
			<path d="M405.5,34.1C405.5,34.1,405.5,34.1,405.5,34.1C405.5,34.1,405.5,34.1,405.5,34.1L405.5,34.1z"/>
			<path d="M411.4,24.6L411.4,24.6c0.9,0.9,2.3,0.9,3.2,0.1l0,0c0.4-0.4,0.7-1,0.7-1.6c0-1.3-1-2.3-2.3-2.3c-0.6,0-1.2,0.3-1.6,0.7
				C410.6,22.3,410.6,23.7,411.4,24.6z M412.5,22.4c0.4-0.4,0.9-0.4,1.3,0c0.4,0.4,0.4,0.9,0,1.3l0,0c-0.4,0.3-0.9,0.3-1.2,0l0,0
				C412.1,23.2,412.1,22.7,412.5,22.4z"/>
			<path d="M407.9,14.4L407.9,14.4c-0.4-0.4-0.9-0.6-1.4-0.6c-0.5,0-1,0.2-1.4,0.5l0,0c0,0,0,0,0,0c-0.8,0.8-0.8,2,0,2.8
				c0.8,0.8,2,0.8,2.8,0.1C408.6,16.5,408.6,15.2,407.9,14.4z M406.9,16.1c-0.2,0.2-0.5,0.3-0.8,0.1c0,0,0,0,0,0
				c-0.2-0.2-0.2-0.6,0-0.8l0,0c0.2-0.2,0.6-0.2,0.8,0l0,0C407,15.6,407,15.9,406.9,16.1z"/>
		</g>
	</g>
</g>
</svg>
