<?xml version="1.0" encoding="utf-8"?>
<!-- Generator: Adobe Illustrator 19.1.1, SVG Export Plug-In . SVG Version: 6.00 Build 0)  -->
<svg version="1.1" id="Capa_1" xmlns="http://www.w3.org/2000/svg" xmlns:xlink="http://www.w3.org/1999/xlink" x="0px" y="0px"
	 viewBox="227 -228.3 512 512" style="enable-background:new 227 -228.3 512 512;" xml:space="preserve">
<g>
	<g>
		<g>
			<path d="M682,173.6L635.4-6.9c-0.9-3.4-4-5.8-7.5-5.8H592v-39.9c14.6-3.5,25.5-16.7,25.5-32.4c0-15.3-10.4-28.2-24.5-32.1
				c0-0.6,0.1-1.3,0.1-1.9c0-22.4-18.2-40.6-40.6-40.6c-7.1,0-14.1,1.9-20.3,5.4c-3.7,2.2-5,6.9-2.9,10.6c2.2,3.7,6.9,5,10.6,2.9
				c3.8-2.2,8.1-3.4,12.5-3.4c13.8,0,25,11.2,25,25c0,0.5,0,0.9,0,1.4c-3.5,0.7-6.8,2-9.9,3.8c-3.7,2.2-5,6.9-2.8,10.6
				c2.2,3.7,6.9,5,10.6,2.8c2.7-1.6,5.8-2.4,8.9-2.4c0,0,0,0,0,0c0,0,0,0,0,0c9.8,0,17.7,8,17.7,17.7c0,9.8-7.9,17.7-17.7,17.7
				c0,0,0,0,0,0h-40.9c-14.9,0-26.9-12.1-26.9-27c0-2.4,0.3-4.7,0.9-7c1.1-4.2-1.3-8.4-5.5-9.5c-4.2-1.1-8.4,1.3-9.5,5.5
				c-1,3.6-1.5,7.3-1.5,11c0,0.1,0,0.2,0,0.3c-2.9,2-6.4,3.1-10.1,3.1c-9.8,0-17.7-8-17.7-17.7c0-1.6,0.2-3.1,0.6-4.6
				c1.1-4.2-1.3-8.4-5.5-9.5c-4.2-1.1-8.4,1.4-9.5,5.5c-0.8,2.8-1.1,5.7-1.1,8.6c0,18.4,14.9,33.3,33.3,33.3c4.6,0,9.1-1,13.3-2.8
				c5.2,12.5,16.2,22,29.6,25.2v40.1H338.1c-3.6,0-6.7,2.4-7.5,5.8l-46.7,181.1c-0.6,2.3-0.1,4.8,1.4,6.7c1.5,1.9,3.7,3,6.2,3h13.4
				v23.4c0,4.3,3.5,7.8,7.8,7.8h340.7c4.3,0,7.8-3.5,7.8-7.8v-23.4h13.4c0,0,0,0,0,0c4.3,0,7.8-3.5,7.8-7.8
				C682.4,175.2,682.2,174.4,682,173.6z M592,2.8h29.8l0,0l8,31.1H592L592,2.8L592,2.8z M549.2-5v-46.7h27.3V-5v52.6h-27.3V-5z
				 M344.2,2.8h189.5v31.1H423h-39.7c-4.3,0-7.8,3.5-7.8,7.8s3.5,7.8,7.8,7.8H423h110.7v5.8c0,4.3,3.5,7.8,7.8,7.8h42.8
				c4.3,0,7.8-3.5,7.8-7.8v-5.8h41.8l8,31.2H324.1L344.2,2.8z M320.4,199.4v-15.6h325.2v15.6H320.4z M653.4,168.3H312.6h-11.2
				L308,143h260.2h39.7c4.3,0,7.8-3.5,7.8-7.8s-3.5-7.8-7.8-7.8h-39.7H312l8-31.2h325.9l18.6,72L653.4,168.3L653.4,168.3z"/>
			<path d="M630.5,127.4h-0.2c-4.3,0-7.8,3.5-7.8,7.8c0,4.3,3.5,7.8,7.8,7.8h0.2c4.3,0,7.8-3.5,7.8-7.8
				C638.3,130.9,634.8,127.4,630.5,127.4z"/>
			<path d="M360.8,33.9h-0.2c-4.3,0-7.8,3.5-7.8,7.8s3.5,7.8,7.8,7.8h0.2c4.3,0,7.8-3.5,7.8-7.8S365.1,33.9,360.8,33.9z"/>
		</g>
	</g>
</g>
</svg>
