<?xml version="1.0" encoding="utf-8"?>
<!-- Generator: Adobe Illustrator 19.1.1, SVG Export Plug-In . SVG Version: 6.00 Build 0)  -->
<svg version="1.1" id="Capa_1" xmlns="http://www.w3.org/2000/svg" xmlns:xlink="http://www.w3.org/1999/xlink" x="0px" y="0px"
	 viewBox="392.2 -0.2 56.7 56.7" style="enable-background:new 392.2 -0.2 56.7 56.7;" xml:space="preserve">
<g>
	<path d="M442.7,50.1h-14.8v-2.2c2.5-0.6,5.1-1.8,7.6-3.7c0,0,0,0,0,0c0,0,0,0,0,0c0,0,0,0,0,0c0,0,0,0,0,0c0,0,0,0,0,0c0,0,0,0,0,0
		c0,0,0,0,0,0c0,0,0,0,0,0c0,0,0,0,0,0c0,0,0,0,0,0c0,0,0,0,0,0c0,0,0,0,0,0c0,0,0,0,0,0c0,0,0,0,0,0c0,0,0,0,0,0c0,0,0,0,0,0
		c0,0,0,0,0,0c0,0,0,0,0,0c0,0,0,0,0,0c0,0,0,0,0,0c0-2-0.2-5.8-1.5-9.3c-1.1-2.9-2.8-5-4.8-6l1.6-2.1c0.7,1.6,2.3,2.7,4.2,2.7
		c0.4,0,0.8-0.4,0.8-0.8c0-0.4-0.4-0.8-0.8-0.8c-1.6,0-3-1.3-3-3c0,0,0-0.1,0-0.1c0-1.5-0.4-2.6-1.2-3.4c-1-1-2.3-1.1-2.5-1.1
		c0,0,0,0,0,0h-1v-1.1c1.1-0.5,1.8-1.3,2.2-2.2c0.2,0.2,0.5,0.4,0.7,0.5c0.4,0.2,0.7,0.2,1.1,0.2c0.9,0,1.7-0.4,1.8-0.5
		c0.3-0.2,0.5-0.6,0.4-1c-0.1-0.4-0.5-0.6-0.9-0.5c0,0-0.1,0-0.2-0.1c-0.1-0.1-0.4-0.5,0.1-2.3c0.8-2.9,0.5-5.5-0.6-7
		c-0.6-0.8-1.5-1.2-2.5-1.2c-1.1,0-1.9,0.3-2.5,0.9c-0.3,0.3-0.4,0.6-0.5,0.8c-0.4-0.1-0.7-0.1-1.1-0.1c-2.4,0-3.6,1.3-4.2,2.4
		c-0.6,1.1-0.6,2.3-0.6,2.3c0,0,0,0,0,0c0,0,0,0,0,0v3.7c0,0,0,0.1,0,0.1c0.2,1.1,0.9,2.9,2.8,3.8v1.1h-1c-0.1,0-1.4,0-2.5,1.1
		c-0.8,0.8-1.2,1.9-1.2,3.4c0,0,0,0.1,0,0.1c0,1.2-1,2.2-2.2,2.2s-2.2-1-2.2-2.2v-3.2c0-0.4-0.4-0.8-0.8-0.8c-0.4,0-0.8,0.4-0.8,0.8
		v3.2c0,2.1,1.7,3.8,3.8,3.8c1.5,0,2.7-0.8,3.4-2l1.6,2.1c-2.2,1-3.9,3.1-5,6.1c-1.3,3.6-1.5,7.4-1.5,9.3c0,0,0,0,0,0c0,0,0,0,0,0
		c0,0,0,0,0,0c0,0,0,0,0,0c0,0,0,0,0,0c0,0,0,0,0,0c0,0,0,0,0,0c0,0,0,0,0,0c0,0,0,0,0,0c0,0,0,0,0,0c0,0,0,0,0,0c0,0,0,0,0,0
		c0,0,0,0,0,0c0,0,0,0,0,0c0,0,0,0,0,0c0,0,0,0,0,0c0.1,0.1,2.2,2.4,5.8,3.5c0.6,0.2,1.2,0.3,1.9,0.5v2h-12.2V20.8
		c1-0.3,1.7-1.3,1.7-2.4v-3.3c0-1.4-1.1-2.5-2.5-2.5s-2.5,1.1-2.5,2.5v3.3c0,1.1,0.7,2.1,1.7,2.4v29.3h-10.5c-0.4,0-0.8,0.4-0.8,0.8
		c0,0.4,0.4,0.8,0.8,0.8h44.3c0.4,0,0.8-0.4,0.8-0.8C443.5,50.5,443.1,50.1,442.7,50.1z M408.8,15.1c0-0.5,0.4-0.9,0.9-0.9
		c0.5,0,0.9,0.4,0.9,0.9v3.3c0,0.5-0.4,0.9-0.9,0.9c-0.5,0-0.9-0.4-0.9-0.9C408.8,18.4,408.8,15.1,408.8,15.1z M430.6,24.1l-2.9,3.7
		h-1.4l2.4-6.4c0.3,0,0.8,0.2,1.1,0.6C430.3,22.4,430.6,23.1,430.6,24.1z M428.2,6.7c0.3-0.3,0.7-0.4,1.4-0.4c0.5,0,0.9,0.2,1.3,0.6
		c0.8,1.1,1,3.3,0.4,5.7c-0.3,1.3-0.4,2.3-0.1,3c0,0,0,0,0,0c-0.4-0.2-0.7-0.6-0.8-1.3V11c0-0.1,0-2.1-1.4-3.4
		c-0.3-0.3-0.5-0.5-0.8-0.6C428,6.9,428.1,6.8,428.2,6.7z M422.6,9.4c0.6-1,1.5-1.5,2.8-1.5c2,0,2.7,1.1,3,2
		c-1.2-0.4-2.3-0.8-2.3-0.8c-0.3-0.1-0.6,0-0.8,0.2c-0.8,0.8-1.6,1.2-2.5,1.3c-0.2,0-0.4,0-0.6-0.1C422.3,10.2,422.4,9.8,422.6,9.4z
		 M422.1,14.7v-2.6c0.2,0,0.4,0,0.6,0c0.8,0,2.1-0.3,3.3-1.4c0.6,0.2,1.6,0.6,2.6,0.9v2.7c0,0,0,0,0,0v0.4c-0.1,0.4-0.6,2.7-3.3,2.9
		h0C422.7,17.4,422.2,15.1,422.1,14.7z M425.3,19.2C425.3,19.2,425.3,19.2,425.3,19.2l0.1,0c0,0,0,0,0.1,0c0.1,0,0.3,0,0.4,0v1.4
		c0,0.4,0.4,0.8,0.8,0.8h0.3l-1.7,4.7l-1.8-4.7h0.6c0.4,0,0.8-0.4,0.8-0.8v-1.4C425.1,19.1,425.2,19.1,425.3,19.2z M421.9,21.4
		l2.5,6.4h-1.2l-2.9-3.7C420.3,22.2,421.3,21.6,421.9,21.4z M416.4,43.2c0-1.9,0.3-5.3,1.4-8.4c1-2.8,2.5-4.6,4.4-5.3
		c0,0.1-0.1,0.1-0.1,0.2c-1.1,1.2-1.6,2.3-1.6,3.3c0,0.4,0.4,0.8,0.8,0.8c0.4,0,0.8-0.4,0.8-0.8c0-1,1.4-2.5,2.4-3.4V34
		c0,0.4,0.4,0.8,0.8,0.8c0.4,0,0.8-0.4,0.8-0.8v-4.5c0.9,0.7,2.4,2.3,2.4,3.4c0,0.4,0.4,0.8,0.8,0.8c0.4,0,0.8-0.4,0.8-0.8
		c0-0.9-0.5-2-1.6-3.3c0-0.1-0.1-0.1-0.1-0.2c4.2,1.7,5.8,8.3,5.9,13.7c-4.3,3.3-8.7,4.3-12.8,3C418.7,45.3,417,43.8,416.4,43.2z
		 M424.3,48.2c0.2,0,0.4,0,0.7,0c0.5,0,0.9,0,1.4-0.1v1.9h-2.1L424.3,48.2L424.3,48.2z"/>
	<path d="M405.9,17c0.4,0,0.8-0.4,0.8-0.8v-1.3c0-1.7,1.4-3.1,3.1-3.1c1.7,0,3.1,1.4,3.1,3.1v1.3c0,0.4,0.4,0.8,0.8,0.8
		c0.4,0,0.8-0.4,0.8-0.8v-1.3c0-2.5-2.1-4.6-4.6-4.6c-2.5,0-4.6,2.1-4.6,4.6v1.3C405.1,16.6,405.4,17,405.9,17z"/>
</g>
</svg>
