<?xml version="1.0" encoding="utf-8"?>
<!-- Generator: Adobe Illustrator 19.1.1, SVG Export Plug-In . SVG Version: 6.00 Build 0)  -->
<svg version="1.1" id="Слой_1" xmlns="http://www.w3.org/2000/svg" xmlns:xlink="http://www.w3.org/1999/xlink" x="0px" y="0px"
	 viewBox="0 0 56.7 56.7" style="enable-background:new 0 0 56.7 56.7;" xml:space="preserve">
<style type="text/css">
	.st0{fill-rule:evenodd;clip-rule:evenodd;}
</style>
<path class="st0" d="M47.2,40.5h-38c-0.6,0-1-0.4-1-1v-8v-4c0-0.8,0.3-1.6,0.9-2.1c0.5-0.5,1.3-0.9,2.1-0.9h1v-3
	c0-1.4,0.6-2.6,1.5-3.5c0.9-0.9,2.2-1.5,3.5-1.5h22c1.4,0,2.6,0.6,3.5,1.5l0.1,0.1c0.9,0.9,1.4,2.1,1.4,3.5v3h1
	c0.8,0,1.6,0.3,2.1,0.9c0.5,0.5,0.9,1.3,0.9,2.1v4l0,0v8C48.2,40,47.8,40.5,47.2,40.5L47.2,40.5z M18.2,23.5c0-0.3,0.1-0.5,0.3-0.7
	l0,0c0.2-0.2,0.4-0.3,0.7-0.3h4c0.6,0,1-0.4,1-1c0-0.6-0.4-1-1-1h-4c-0.8,0-1.6,0.3-2.1,0.9c-0.5,0.5-0.9,1.3-0.9,2.1
	c0,0.6,0.4,1,1,1C17.8,24.5,18.2,24,18.2,23.5L18.2,23.5z M10.2,30.5h4v-3c0-0.3-0.1-0.5-0.3-0.7c-0.2-0.2-0.4-0.3-0.7-0.3h-2
	c-0.3,0-0.5,0.1-0.7,0.3l0,0c-0.2,0.2-0.3,0.4-0.3,0.7V30.5L10.2,30.5z M16.2,30.5h24v-3c0-0.8,0.3-1.6,0.9-2.1
	c0.3-0.3,0.7-0.6,1.1-0.7v-3.2c0-0.8-0.3-1.5-0.8-2.1l0,0c-0.5-0.5-1.3-0.9-2.1-0.9h-22c-0.8,0-1.6,0.3-2.1,0.9
	c-0.5,0.5-0.9,1.3-0.9,2.1v3.2c0.4,0.2,0.8,0.4,1.1,0.7c0.5,0.5,0.9,1.3,0.9,2.1V30.5L16.2,30.5z M42.2,30.5h4v-3
	c0-0.3-0.1-0.5-0.3-0.7c-0.2-0.2-0.4-0.3-0.7-0.3h-2c-0.3,0-0.5,0.1-0.7,0.3l0,0c-0.2,0.2-0.3,0.4-0.3,0.7V30.5L42.2,30.5z
	 M10.2,38.5h36v-6h-5h-26h-5V38.5z"/>
</svg>
