<?xml version="1.0" encoding="utf-8"?>
<!-- Generator: Adobe Illustrator 19.1.1, SVG Export Plug-In . SVG Version: 6.00 Build 0)  -->
<svg version="1.1" id="Слой_1" xmlns="http://www.w3.org/2000/svg" xmlns:xlink="http://www.w3.org/1999/xlink" x="0px" y="0px"
	 viewBox="0 0 56.7 56.7" style="enable-background:new 0 0 56.7 56.7;" xml:space="preserve">
<style type="text/css">
	.st0{fill-rule:evenodd;clip-rule:evenodd;}
</style>
<path class="st0" d="M15.9,17.2c1.9,0,3.6,0.5,4.8,1.3c1.4,0.9,2.2,2.2,2.2,3.7v0v8c0,1.5-0.8,2.8-2.2,3.7l-0.1,0
	c-1.2,0.8-2.9,1.3-4.7,1.3c-1.9,0-3.6-0.5-4.8-1.3c-1.4-0.9-2.2-2.2-2.2-3.7v-8v0c0-1.5,0.8-2.8,2.2-3.7l0.1,0
	C12.4,17.7,14.1,17.2,15.9,17.2L15.9,17.2z M12.2,47.2l36-10c0.5-0.1,0.8-0.7,0.7-1.2c-0.1-0.5-0.7-0.8-1.2-0.7l-36,10
	c-0.5,0.1-0.8,0.7-0.7,1.2C11.1,47,11.6,47.3,12.2,47.2L12.2,47.2z M45.5,25.3l-34,16c-0.5,0.2-0.7,0.8-0.5,1.3
	c0.2,0.5,0.8,0.7,1.3,0.5l34-16c0.5-0.2,0.7-0.8,0.5-1.3C46.6,25.3,46,25.1,45.5,25.3L45.5,25.3z M38.9,22.2c0,1.5-0.8,2.8-2.2,3.7
	l-0.1,0c-1.2,0.8-2.9,1.3-4.7,1.3c-1.9,0-3.6-0.5-4.8-1.3c-1.4-0.9-2.2-2.2-2.2-3.7v-8v0c0-1.5,0.8-2.8,2.2-3.7l0.1,0
	c1.2-0.8,2.9-1.3,4.7-1.3c1.9,0,3.6,0.5,4.8,1.3c1.4,0.9,2.2,2.2,2.2,3.7v0V22.2L38.9,22.2z M28.8,16.5c0.8,0.4,1.9,0.7,3.1,0.7h0.1
	H32c0.1,0,0.2,0,0.3,0l0.1,0l0.1,0c1.2-0.1,2.3-0.5,3.1-1c0.8-0.5,1.2-1.2,1.3-1.8l0,0l0-0.1l0,0c0-0.7-0.5-1.5-1.3-2
	c-0.9-0.6-2.2-1-3.7-1c-1.4,0-2.7,0.4-3.6,1l-0.1,0c-0.8,0.5-1.3,1.3-1.3,2c0,0.7,0.5,1.5,1.3,2c0.1,0.1,0.2,0.2,0.4,0.2L28.8,16.5
	L28.8,16.5z M35.6,24.2L35.6,24.2c-1,0.6-2.3,1-3.7,1c-1.5,0-2.8-0.4-3.7-1c-0.8-0.5-1.3-1.2-1.3-2v-4.5l0.2,0.1
	c1.2,0.8,2.9,1.3,4.7,1.3l0.1,0l0.3,0l0.1,0l0.3,0l0,0c1.6-0.1,3-0.6,4.1-1.3c0.1,0,0.1-0.1,0.2-0.1v4.5
	C36.9,22.9,36.4,23.6,35.6,24.2L35.6,24.2z M29.9,15.2h4c0.6,0,1-0.4,1-1s-0.4-1-1-1h-4c-0.6,0-1,0.4-1,1S29.4,15.2,29.9,15.2
	L29.9,15.2z M20.9,25.7c-0.1,0-0.1,0.1-0.2,0.1c-1.1,0.7-2.5,1.2-4.1,1.3l0,0l-0.3,0l-0.1,0l-0.3,0l-0.1,0c-1.8,0-3.5-0.5-4.7-1.3
	l-0.2-0.1v4.5c0,0.7,0.5,1.5,1.3,2c0.9,0.6,2.2,1,3.7,1c1.4,0,2.7-0.4,3.6-1l0.1,0c0.8-0.5,1.3-1.3,1.3-2V25.7L20.9,25.7z
	 M12.8,24.5c0.8,0.4,1.9,0.7,3.1,0.7h0.1H16c0.1,0,0.2,0,0.3,0l0.1,0l0.1,0c1.2-0.1,2.3-0.5,3.1-1c0.8-0.5,1.2-1.2,1.3-1.8l0,0
	l0-0.1l0,0c0-0.7-0.5-1.5-1.3-2c-0.9-0.6-2.2-1-3.7-1c-1.4,0-2.7,0.4-3.6,1l-0.1,0c-0.8,0.5-1.3,1.3-1.3,2c0,0.7,0.5,1.5,1.3,2
	c0.1,0.1,0.2,0.2,0.4,0.2L12.8,24.5L12.8,24.5z M13.9,23.2h4c0.6,0,1-0.4,1-1s-0.4-1-1-1h-4c-0.6,0-1,0.4-1,1S13.4,23.2,13.9,23.2z"
	/>
</svg>
