<?xml version="1.0" encoding="utf-8"?>
<!-- Generator: Adobe Illustrator 19.1.1, SVG Export Plug-In . SVG Version: 6.00 Build 0)  -->
<svg version="1.1" id="Слой_1" xmlns="http://www.w3.org/2000/svg" xmlns:xlink="http://www.w3.org/1999/xlink" x="0px" y="0px"
	 viewBox="0 0 56.7 56.7" style="enable-background:new 0 0 56.7 56.7;" xml:space="preserve">
<style type="text/css">
	.st0{fill-rule:evenodd;clip-rule:evenodd;}
</style>
<path class="st0" d="M18.3,38.3l-5.5,0c-0.8,0-1.6-0.3-2.1-0.9c-0.5-0.5-0.9-1.3-0.9-2.1v-12c0-0.8,0.3-1.6,0.9-2.1
	c0.5-0.5,1.3-0.9,2.1-0.9h5.7l13.7-9.7c0.5-0.3,1.1-0.2,1.4,0.2c0.1,0.2,0.2,0.4,0.2,0.6l0,34c0,0.6-0.4,1-1,1
	c-0.2,0-0.4-0.1-0.5-0.2L18.3,38.3L18.3,38.3z M19.8,21.8v15l12,6.9V13.4L19.8,21.8L19.8,21.8z M42.4,19.9c-0.4-0.4-0.4-1,0-1.4
	c0.4-0.4,1-0.4,1.4,0c1.3,1.3,2.3,2.8,3,4.5c0.7,1.6,1,3.4,1,5.3c0,1.9-0.4,3.7-1.1,5.4C46,35.5,45,37,43.7,38.3
	c-0.4,0.4-1,0.4-1.4,0c-0.4-0.4-0.4-1,0-1.4c1.1-1.1,2-2.4,2.6-3.9c0.6-1.4,0.9-3,0.9-4.6c0-1.6-0.3-3.2-0.9-4.6
	C44.4,22.3,43.5,21,42.4,19.9L42.4,19.9z M36.7,25.6c-0.4-0.4-0.4-1,0-1.4c0.4-0.4,1-0.4,1.4,0c0.5,0.5,1,1.2,1.2,1.9
	c0.3,0.7,0.4,1.5,0.4,2.2c0,0.8-0.2,1.6-0.5,2.3c-0.3,0.8-0.8,1.4-1.4,2c-0.4,0.4-1,0.4-1.4,0c-0.4-0.4-0.4-1,0-1.4
	c0.4-0.4,0.7-0.8,0.9-1.3c0.2-0.5,0.3-1,0.3-1.6c0-0.5-0.1-1-0.3-1.5C37.4,26.4,37.1,25.9,36.7,25.6L36.7,25.6z M39.6,22.7
	c0.7,0.7,1.3,1.6,1.7,2.6c0.4,0.9,0.6,1.9,0.6,3c0,1.1-0.2,2.2-0.6,3.1c-0.4,1-1,1.9-1.8,2.6c-0.4,0.4-0.4,1,0,1.4
	c0.4,0.4,1,0.4,1.4,0c0.9-0.9,1.7-2,2.2-3.3c0.5-1.2,0.8-2.5,0.8-3.9c0-1.3-0.3-2.6-0.7-3.8c-0.5-1.2-1.2-2.3-2.1-3.2
	c-0.4-0.4-1-0.4-1.4,0C39.2,21.7,39.2,22.3,39.6,22.7L39.6,22.7z M12.8,36.3l5,0v-14h-5c-0.3,0-0.5,0.1-0.7,0.3
	c-0.2,0.2-0.3,0.4-0.3,0.7v12c0,0.3,0.1,0.5,0.3,0.7C12.3,36.2,12.5,36.3,12.8,36.3z"/>
</svg>
