<?xml version="1.0" encoding="utf-8"?>
<!-- Generator: Adobe Illustrator 19.1.1, SVG Export Plug-In . SVG Version: 6.00 Build 0)  -->
<svg version="1.1" id="Слой_1" xmlns="http://www.w3.org/2000/svg" xmlns:xlink="http://www.w3.org/1999/xlink" x="0px" y="0px"
	 viewBox="0 0 56.7 56.7" style="enable-background:new 0 0 56.7 56.7;" xml:space="preserve">
<style type="text/css">
	.st0{fill-rule:evenodd;clip-rule:evenodd;}
</style>
<path class="st0" d="M9.6,25.8c-0.4-0.4-0.4-1,0-1.4s1-0.4,1.4,0c2.3,2.3,2.3,4.5,2.3,6.7v5h7c0.6,0,1,0.4,1,1v10c0,0.6-0.4,1-1,1
	s-1-0.4-1-1v-9h-6v9c0,0.6-0.4,1-1,1c-0.6,0-1-0.4-1-1v-10v-6C11.3,29.3,11.3,27.5,9.6,25.8L9.6,25.8z M27.8,8.2L27.8,8.2L27.8,8.2
	L27.8,8.2l-16.1,10c-0.5,0.3-0.6,0.9-0.3,1.4c0.2,0.3,0.6,0.5,0.9,0.5l15,0l0,10h-9c-0.6,0-1,0.4-1,1c0,0.6,0.4,1,1,1h5.9l1.1,5
	l-2,9.8c0,0.1,0,0.1,0,0.2c0,0.5,0.4,1,1,1l3.7,0c0.1,0,0.2,0,0.3,0c0.1,0,0.2,0,0.3,0l3.7,0c0.5,0,1-0.4,1-1l0-0.2l-2-9.8l1.1-5
	h5.9c0.6,0,1-0.4,1-1c0-0.6-0.4-1-1-1h-9l0-10l15,0c0.4,0,0.7-0.1,0.9-0.5c0.3-0.5,0.1-1.1-0.3-1.4l-16-10l0,0l0,0l0,0
	c0,0-0.1,0-0.1,0c-0.1,0-0.2-0.1-0.2-0.1c0,0-0.1,0-0.1,0h0c0,0-0.1,0-0.1,0C28.1,8.1,28,8.1,27.8,8.2C27.9,8.2,27.8,8.2,27.8,8.2
	L27.8,8.2z M28.3,18.1L28.3,18.1l-12.5,0l12.5-7.8l12.5,7.8L28.3,18.1L28.3,18.1L28.3,18.1z M30.4,32.1l-1,4.7c0,0.1,0,0.3,0,0.5
	l1.8,8.8l-2.5,0c-0.1,0-0.2,0-0.3,0c-0.1,0-0.2,0-0.3,0l-2.5,0l1.8-8.8c0-0.2,0-0.3,0-0.5l-1-4.7h2.1h0h0H30.4L30.4,32.1z
	 M43.3,38.1h-6v9c0,0.6-0.4,1-1,1s-1-0.4-1-1v-10c0-0.6,0.4-1,1-1h7v-5c0-2.2,0-4.4,2.3-6.7c0.4-0.4,1-0.4,1.4,0
	c0.4,0.4,0.4,1,0,1.4c-1.7,1.7-1.7,3.5-1.7,5.3v6v10c0,0.6-0.4,1-1,1c-0.6,0-1-0.4-1-1V38.1z"/>
</svg>
