<?xml version="1.0" encoding="utf-8"?>
<!-- Generator: Adobe Illustrator 19.1.1, SVG Export Plug-In . SVG Version: 6.00 Build 0)  -->
<svg version="1.1" id="Capa_1" xmlns="http://www.w3.org/2000/svg" xmlns:xlink="http://www.w3.org/1999/xlink" x="0px" y="0px"
	 viewBox="0 0 56.7 56.7" style="enable-background:new 0 0 56.7 56.7;" xml:space="preserve">
<g>
	<path d="M44.9,15.6H33.1c-0.1-0.5-0.3-1.1-0.5-1.6l9.9-3.1c0.4-0.1,0.6-0.5,0.5-0.9c-0.1-0.4-0.5-0.6-0.9-0.5l-10.4,3.3
		c-0.8-0.7-1.9-1.2-3.1-1.2c-1.2,0-2.3,0.5-3.1,1.2L14.7,9.4c-0.4-0.1-0.8,0.1-0.9,0.5c-0.1,0.4,0.1,0.8,0.5,0.9l9.9,3.1
		c-0.3,0.5-0.5,1-0.5,1.6H11.8c-1.2,0-2.2,1-2.2,2.2v25.1c0,1.2,1,2.2,2.2,2.2h0.4v1.5c0,0.4,0.4,0.7,0.7,0.7s0.7-0.4,0.7-0.7v-1.5
		h29.4v1.5c0,0.4,0.4,0.7,0.7,0.7s0.7-0.4,0.7-0.7v-1.5h0.4c1.2,0,2.2-1,2.2-2.2V17.8C47.1,16.6,46.1,15.6,44.9,15.6z M28.3,13
		c1.6,0,2.9,1.1,3.2,2.6h-6.4C25.4,14.1,26.7,13,28.3,13z M45.6,42.9c0,0.5-0.4,0.7-0.7,0.7H11.8c-0.5,0-0.7-0.4-0.7-0.7V17.8
		c0-0.5,0.4-0.7,0.7-0.7h33.1c0.5,0,0.7,0.4,0.7,0.7V42.9L45.6,42.9z"/>
	<path d="M43.6,19.6c-0.1-0.4-0.4-0.5-0.6-0.6c-9.7-0.8-19.6-0.8-29.3,0c-0.4,0-0.6,0.3-0.6,0.6c-1.2,6.9-1.2,13.8,0,20.7
		c0.1,0.4,0.4,0.5,0.6,0.6c4.9,0.4,9.8,0.6,14.7,0.6S38.1,41.4,43,41c0.4,0,0.6-0.3,0.6-0.6C44.8,33.5,44.8,26.5,43.6,19.6z
		 M42.2,39.5c-9.3,0.7-18.7,0.7-28,0c-1-6.3-1-12.7,0-19.1c9.3-0.7,18.7-0.7,28,0C43.2,26.8,43.2,33.2,42.2,39.5z"/>
	<path d="M41,26c-0.4,0-0.7,0.4-0.7,0.8c0.2,2.6,0.1,5.2-0.1,7.8c0,0.4,0.3,0.7,0.6,0.8c0,0,0,0,0.1,0c0.4,0,0.7-0.3,0.7-0.6
		c0.2-2.7,0.3-5.4,0.1-8.1C41.9,26.3,41.5,26,41,26z"/>
	<path d="M41,25.1L41,25.1c0.5,0,0.7-0.4,0.7-0.8c-0.1-0.7-0.2-1.6-0.3-2.3c-0.1-0.4-0.5-0.7-0.8-0.6c-0.4,0.1-0.7,0.5-0.6,0.8
		c0.1,0.7,0.2,1.5,0.3,2.2C40.2,24.8,40.6,25.1,41,25.1z"/>
	<path d="M44.7,41.6c-0.5-0.4-1.3,0.2-1.1,0.8c0.1,0.3,0.4,0.5,0.6,0.5c0.4,0,0.6-0.2,0.7-0.5C45.1,42.2,45,41.8,44.7,41.6z"/>
</g>
</svg>
