<?xml version="1.0" encoding="utf-8"?>
<svg version="1.1" xmlns="http://www.w3.org/2000/svg" viewBox="0 0 57 57">
<path d="M43.2,33.7c0,4.1-1.7,7.9-4.4,10.6l0,0c-2.7,2.7-6.5,4.4-10.6,4.4c-4.1,0-7.9-1.7-10.6-4.4l0,0
	c-2.7-2.7-4.4-6.5-4.4-10.6c0-7.4,6.5-15.2,11.1-20.8c1.2-1.5,2.3-2.8,3.1-3.8c0.3-0.4,0.9-0.5,1.4-0.2C28.8,8.9,28.9,9,29,9.1
	c0.8,1.1,1.8,2.4,3.1,3.8C36.6,18.5,43.2,26.3,43.2,33.7L43.2,33.7z M23.7,41.5c0.5,0.3,0.6,0.9,0.3,1.4c-0.3,0.5-0.9,0.6-1.4,0.3
	c-0.6-0.4-1.2-0.8-1.7-1.3c-0.5-0.5-1-1-1.5-1.6c-0.3-0.4-0.2-1.1,0.2-1.4c0.4-0.3,1.1-0.2,1.4,0.2c0.4,0.5,0.8,0.9,1.2,1.3
	C22.7,40.8,23.2,41.2,23.7,41.5L23.7,41.5z M19.6,36.2c0.2,0.5-0.1,1.1-0.7,1.2c-0.5,0.2-1.1-0.1-1.2-0.7c-0.2-0.6-0.3-1.1-0.4-1.7
	c-0.1-0.6-0.1-1.1-0.1-1.7c0-5.5,4.7-11.4,8-15.5c0.9-1.1,1.6-2,2.2-2.8c0.3-0.5,0.9-0.6,1.4-0.3c0.5,0.3,0.6,0.9,0.3,1.4
	c-0.6,0.8-1.4,1.8-2.3,2.9c-3.1,3.9-7.6,9.4-7.6,14.2c0,0.5,0,1,0.1,1.4C19.3,35.3,19.4,35.8,19.6,36.2L19.6,36.2z M37.3,42.9
	c2.4-2.4,3.8-5.6,3.8-9.2c0-6.7-6.3-14.2-10.7-19.5c-0.9-1.1-1.7-2-2.4-2.9c-0.7,0.9-1.5,1.8-2.4,2.9C21.4,19.5,15.1,27,15.1,33.7
	c0,3.6,1.5,6.8,3.8,9.2c2.4,2.4,5.6,3.8,9.2,3.8C31.7,46.7,35,45.3,37.3,42.9L37.3,42.9z"/>
</svg>