<?xml version="1.0" encoding="utf-8"?>
<!-- Generator: Adobe Illustrator 19.1.1, SVG Export Plug-In . SVG Version: 6.00 Build 0)  -->
<svg version="1.1" id="Слой_1" xmlns="http://www.w3.org/2000/svg" xmlns:xlink="http://www.w3.org/1999/xlink" x="0px" y="0px"
	 viewBox="0 0 56.7 56.7" style="enable-background:new 0 0 56.7 56.7;" xml:space="preserve">
<style type="text/css">
	.st0{fill-rule:evenodd;clip-rule:evenodd;}
</style>
<path class="st0" d="M26,37.3c0,0.8,0.3,1.6,0.9,2.1c0.5,0.5,1.3,0.9,2.1,0.9c0.8,0,1.6-0.3,2.1-0.9c0.5-0.5,0.9-1.3,0.9-2.1
	c0-0.8-0.3-1.6-0.9-2.1c-0.5-0.5-1.3-0.9-2.1-0.9c-0.8,0-1.6,0.3-2.1,0.9C26.4,35.7,26,36.4,26,37.3L26,37.3z M37.1,29.1
	c0.4,0.3,0.5,1,0.2,1.4c-0.3,0.4-1,0.5-1.4,0.2c-2-1.6-4.4-2.4-6.8-2.4c-2.4,0-4.8,0.8-6.8,2.4c-0.4,0.3-1.1,0.3-1.4-0.2
	c-0.3-0.4-0.3-1.1,0.2-1.4c2.4-1.9,5.2-2.8,8-2.8C31.9,26.3,34.8,27.2,37.1,29.1L37.1,29.1z M45.7,20.6c0.4,0.4,0.4,1,0.1,1.4
	c-0.4,0.4-1,0.4-1.4,0.1c-4.3-3.8-9.8-5.8-15.3-5.8c-5.4,0-10.8,1.9-15.2,5.8c-0.4,0.4-1,0.3-1.4-0.1c-0.4-0.4-0.3-1,0.1-1.4
	c4.8-4.3,10.7-6.3,16.6-6.3C35,14.2,41,16.4,45.7,20.6L45.7,20.6z M41.4,24.8c-3.5-3-7.9-4.6-12.4-4.6c-4.4,0-8.7,1.5-12.3,4.6
	c-0.4,0.4-0.5,1-0.1,1.4c0.4,0.4,1,0.5,1.4,0.1c3.2-2.8,7.1-4.1,11-4.1c4,0,7.9,1.4,11.1,4.1c0.4,0.4,1,0.3,1.4-0.1
	C41.9,25.8,41.8,25.2,41.4,24.8L41.4,24.8z M25.5,40.8c-0.9-0.9-1.5-2.2-1.5-3.5c0-1.4,0.6-2.6,1.5-3.5c0.9-0.9,2.2-1.5,3.5-1.5
	c1.4,0,2.6,0.6,3.5,1.5c0.9,0.9,1.5,2.2,1.5,3.5c0,1.4-0.6,2.6-1.5,3.5c-0.9,0.9-2.2,1.5-3.5,1.5C27.7,42.3,26.4,41.7,25.5,40.8z"/>
</svg>
